<svg xmlns="http://www.w3.org/2000/svg" width="215.91" height="65" viewBox="0 0 215.91 65"><g transform="translate(-5174 -5106)" opacity="0.5"><path d="M.5,4.159C-.641,3.1.344,1.659,1.783,2.493a113.869,113.869,0,0,0,56.667,15,112.749,112.749,0,0,0,43.258-8.864c2.121-.833,3.863,1.439,1.818,2.954C91.026,20.826,72.844,25.75,57.162,25.75A84.063,84.063,0,0,1,.5,4.159ZM105.42,19.917c1.515-3.788,4.924-12.2,3.333-14.318-1.591-2.045-10.606-.985-14.622-.454-1.212.151-1.439-.91-.3-1.667,7.2-5.075,18.94-3.56,20.3-1.893s-.379,13.484-7.122,19.091a1.748,1.748,0,0,1-1.034.428C105.434,21.1,105.125,20.652,105.42,19.917Z" transform="translate(5204.414 5145.25)" fill="#242424"/><path d="M288.273,270.221V265.3a1.153,1.153,0,0,1,1.212-1.212h21.97a1.262,1.262,0,0,1,1.288,1.212v4.167c0,.682-.606,1.591-1.667,3.106l-11.364,16.212a24.681,24.681,0,0,1,12.5,2.652,2.257,2.257,0,0,1,1.136,1.894v5.227c0,.758-.758,1.591-1.591,1.136a25.062,25.062,0,0,0-23.182.076,1.189,1.189,0,0,1-1.591-1.136v-5a5.661,5.661,0,0,1,.833-3.333L301,271.433H289.561A1.262,1.262,0,0,1,288.273,270.221ZM208.2,300.752H201.53a1.368,1.368,0,0,1-1.212-1.136V265.373a1.262,1.262,0,0,1,1.288-1.212h6.212a1.235,1.235,0,0,1,1.212,1.136v4.47h.152c1.591-4.318,4.7-6.364,8.788-6.364,4.167,0,6.818,2.045,8.636,6.364a9.494,9.494,0,0,1,9.242-6.364,9.391,9.391,0,0,1,7.727,3.788c2.121,2.879,1.667,7.045,1.667,10.758v21.667a1.262,1.262,0,0,1-1.288,1.212h-6.591a1.3,1.3,0,0,1-1.212-1.212V281.433a45.436,45.436,0,0,0-.152-6.439c-.53-2.273-1.97-2.955-3.939-2.955a4.461,4.461,0,0,0-4.015,2.8c-.682,1.742-.606,4.621-.606,6.591v18.182a1.262,1.262,0,0,1-1.288,1.212h-6.667a1.3,1.3,0,0,1-1.212-1.212V281.433c0-3.788.606-9.47-4.091-9.47-4.773,0-4.621,5.455-4.621,9.47v18.182a1.331,1.331,0,0,1-1.364,1.136ZM331.682,263.4c9.924,0,15.3,8.485,15.3,19.318,0,10.455-5.909,18.788-15.3,18.788-9.7,0-15-8.485-15-19.091C316.606,271.736,321.985,263.4,331.682,263.4Zm0,7.045c-4.924,0-5.227,6.742-5.227,10.909s-.076,13.106,5.152,13.106c5.152,0,5.455-7.2,5.455-11.591a33.15,33.15,0,0,0-.985-9.091,4.189,4.189,0,0,0-4.394-3.333Zm28.106,30.3h-6.667a1.3,1.3,0,0,1-1.212-1.212V265.221a1.309,1.309,0,0,1,1.288-1.136h6.212a1.3,1.3,0,0,1,1.212.985V270.3h.152c1.894-4.7,4.47-6.894,9.091-6.894a8.822,8.822,0,0,1,7.8,4.015c1.742,2.727,1.742,7.349,1.742,10.682v21.591a1.246,1.246,0,0,1-1.288,1.061h-6.667a1.378,1.378,0,0,1-1.212-1.061V281.055c0-3.788.455-9.242-4.167-9.242a4.386,4.386,0,0,0-3.864,2.727,15.727,15.727,0,0,0-1.061,6.515v18.485a1.387,1.387,0,0,1-1.364,1.212Zm-89.015-16.364c0,2.576.076,4.773-1.212,7.121a5.362,5.362,0,0,1-4.621,3.03c-2.576,0-4.091-1.97-4.091-4.849,0-5.682,5.076-6.742,9.924-6.742Zm6.742,16.288a1.37,1.37,0,0,1-1.591.152,16.729,16.729,0,0,1-3.864-4.47c-3.636,3.712-6.288,4.849-10.985,4.849-5.606,0-10-3.485-10-10.379a11.34,11.34,0,0,1,7.121-10.909c3.636-1.591,8.712-1.894,12.576-2.349v-.833c0-1.591.152-3.485-.833-4.849a4.486,4.486,0,0,0-3.712-1.742c-2.576,0-4.848,1.288-5.379,4.015-.152.606-.53,1.212-1.136,1.212l-6.439-.682a1.166,1.166,0,0,1-.985-1.364c1.515-7.879,8.561-10.227,14.924-10.227,3.258,0,7.5.833,10.076,3.333,3.258,3.03,2.955,7.121,2.955,11.515v10.379c0,3.106,1.288,4.47,2.5,6.212.455.606.53,1.364,0,1.742-1.439,1.136-3.864,3.258-5.227,4.394Zm-94.243-16.288c0,2.576.076,4.773-1.212,7.121a5.362,5.362,0,0,1-4.621,3.03c-2.576,0-4.091-1.97-4.091-4.849,0-5.682,5.076-6.742,9.924-6.742Zm6.667,16.288a1.37,1.37,0,0,1-1.591.152,16.728,16.728,0,0,1-3.864-4.47c-3.636,3.712-6.288,4.849-10.985,4.849-5.606,0-10-3.485-10-10.379a11.34,11.34,0,0,1,7.121-10.909c3.636-1.591,8.712-1.894,12.576-2.349v-.833c0-1.591.152-3.485-.833-4.849a4.486,4.486,0,0,0-3.712-1.742c-2.576,0-4.848,1.288-5.379,4.015-.152.606-.53,1.212-1.136,1.212l-6.439-.682a1.166,1.166,0,0,1-.985-1.364c1.515-7.879,8.561-10.227,14.924-10.227,3.258,0,7.5.833,10.076,3.333,3.258,3.03,2.955,7.121,2.955,11.515v10.379c0,3.106,1.288,4.47,2.5,6.212.455.606.53,1.364,0,1.742-1.439,1.136-3.864,3.258-5.227,4.394Z" transform="translate(5010.5 4842.9)" fill="#242424" fill-rule="evenodd"/></g></svg>