<svg xmlns="http://www.w3.org/2000/svg" width="256" height="36.067" viewBox="0 0 256 36.067"><g transform="translate(-13.249 -6.086)" opacity="0.5"><path d="M28.261,6.088a1.4,1.4,0,0,0-.7.218A3.8,3.8,0,0,1,30.175,7.47a.762.762,0,0,1-.092,1.072,2.319,2.319,0,0,1-2.339.662c-2.782-.657-5.413-1.934-8.272-2.266a4.992,4.992,0,0,0-4.084,1.6,4.526,4.526,0,0,0-1.137,3.8,2.813,2.813,0,0,0,2.14,2.32,2.115,2.115,0,0,1-.1-2.764,1.778,1.778,0,0,1,1.68-.467c2.215.412,4.374,1.079,6.584,1.527,1.237.337,2.46.739,3.724.968q.034,2.267,0,4.532c-.816.609-1.6,1.265-2.4,1.895.779.583,1.583,1.13,2.389,1.677.052,2.137-.008,4.274.031,6.411a6.411,6.411,0,0,1-4.689,1,6.556,6.556,0,0,1-4.333-2.343c1.871-1,3.778-1.94,5.692-2.855.067-3.37.012-6.742.03-10.113-2.392,1-4.759,2.059-7.142,3.077a7.817,7.817,0,0,1,3.763-4.038,3.493,3.493,0,0,0-1.3.184A11.354,11.354,0,0,0,13.64,20.48,10.1,10.1,0,0,0,13.9,26.8a10.228,10.228,0,0,0,4.628,5.351,8.853,8.853,0,0,0,3.874,1.221,9.524,9.524,0,0,0,7.778-2.986,9.136,9.136,0,0,0,1.68-3.215,9.764,9.764,0,0,0,.521-3.5,12.974,12.974,0,0,1-3.828,4.765c.011-2.13,0-4.259,0-6.388.729-.556,1.461-1.111,2.166-1.7-.724-.642-1.444-1.282-2.166-1.925,0-1.5,0-3,0-4.494,1.631-.086,3.507-.946,3.946-2.656a4.186,4.186,0,0,0-.218-3.449,4.35,4.35,0,0,0-2.4-1.512,12.56,12.56,0,0,0-1.623-.23Zm-7.629,10.27c-.006,3.246.019,6.492-.011,9.738-.542.213-1.075.446-1.608.681a11.865,11.865,0,0,1-1.876-4.8,10.637,10.637,0,0,1,.689-4.233C18.77,17.3,19.693,16.814,20.633,16.358ZM207.647,6.088a1.189,1.189,0,0,0-.762.218,7.154,7.154,0,0,1,1.65.44,1.921,1.921,0,0,1,.922,1.148,1.143,1.143,0,0,1-.735,1.171,3.713,3.713,0,0,1-2.53-.023c-1.96-.6-3.868-1.376-5.868-1.845a6.806,6.806,0,0,0-3.142-.153,5.012,5.012,0,0,0-2.932,1.86,4.312,4.312,0,0,0-.547,3.931,2.7,2.7,0,0,0,2.029,1.833c-.322-.413-.875-.831-.716-1.42a2.449,2.449,0,0,1,.8-1.558,1.885,1.885,0,0,1,1.654-.191c1.994.371,3.939.93,5.91,1.4,1.335.283,2.617.782,3.962,1.03.023,1.505.005,3.01.011,4.517-.723.638-1.445,1.276-2.159,1.925.72.556,1.426,1.125,2.155,1.669.011,2.142,0,4.287.011,6.431a6.059,6.059,0,0,1-4.463.968,6.648,6.648,0,0,1-4.3-2.327,13.2,13.2,0,0,1,1.485-.789c1.4-.689,2.781-1.41,4.191-2.075.044-3.373.005-6.747.019-10.12-2.376,1.012-4.734,2.072-7.12,3.062a7.369,7.369,0,0,1,2.587-3.269,2.74,2.74,0,0,1,1.187-.766,3.576,3.576,0,0,0-1.416.241,11.025,11.025,0,0,0-6.859,7.969,11.7,11.7,0,0,0,.578,5.523,10.569,10.569,0,0,0,4.184,5.053,12.6,12.6,0,0,0,2.9,1.305,10.578,10.578,0,0,0,7.185-1.24,8.451,8.451,0,0,0,3.3-3.9,11.372,11.372,0,0,0,.919-4.459,13.478,13.478,0,0,0-.716,1.252,11.983,11.983,0,0,1-3.135,3.533c.015-2.136-.019-4.272.019-6.408.723-.522,1.4-1.1,2.128-1.623-.67-.7-1.432-1.3-2.144-1.944-.014-1.5.017-3-.015-4.494a4.456,4.456,0,0,0,3.571-1.948,4.209,4.209,0,0,0,.023-4.256,3.878,3.878,0,0,0-2.5-1.439C208.537,6.279,208.084,6.1,207.647,6.088Zm-7.69,10.266c.018,3.24,0,6.479.007,9.719-.553.231-1.1.475-1.65.708a10.817,10.817,0,0,1-1.742-3.732,8.222,8.222,0,0,1,.559-5.294C198.081,17.3,199.017,16.827,199.957,16.354ZM86.089,7.168a4.048,4.048,0,0,1-1.032,4.916,11.381,11.381,0,0,1-2.765,1.161c.021,6.538,0,13.077.006,19.615a.353.353,0,0,1-.488.413c-.556-.026-.7-.612-.939-1.007-3.42-6.29-6.8-12.6-10.252-18.877-.066,4.616,0,9.237-.032,13.855a7.26,7.26,0,0,1,4.281,2.389c.495-.383.815-1.056,1.448-1.211a4.2,4.2,0,0,1-.619.778Q73.848,31.245,72,33.3a3.552,3.552,0,0,0-2.284-1.5,2.251,2.251,0,0,0-1.807.5,1.608,1.608,0,0,0-.5,1.928c.439.96,1.545,1.22,2.476,1.45a4.084,4.084,0,0,1-3.4-.684,4.485,4.485,0,0,1-1.62-2.437,4.262,4.262,0,0,1,1.164-3.843A5.61,5.61,0,0,1,70.3,27.29c.041-2.012.023-4.024.009-6.036-.743-.118-1.755-.012-2.1.764a1.426,1.426,0,0,0,.738,1.5,2.8,2.8,0,0,1-1.64-.66,4.751,4.751,0,0,1-1.018-2.1,2.963,2.963,0,0,1,.949-2.774,4.777,4.777,0,0,1,3.084-.74V12.995a3.786,3.786,0,0,0-1.413-1.537,1.3,1.3,0,0,0-1.367.093,3.571,3.571,0,0,0-.842,1.738,5.388,5.388,0,0,1,.991-4.33,3.564,3.564,0,0,1,5.285-.182,9.3,9.3,0,0,1,1.406,2.107c2.542,4.526,5.033,9.081,7.6,13.591.015-3.74.023-7.484,0-11.224-.441-.171-.932-.167-1.381-.323a5.147,5.147,0,0,1-2.151-1.343c-.386.453-.775.9-1.135,1.378l-.335-.182c1.317-1.66,2.728-3.244,4.1-4.861A4.251,4.251,0,0,0,83.8,9.363a2.555,2.555,0,0,0,2.292-2.2Zm85.468,3.621c1.837-1.2,3.671-2.405,5.515-3.593.015,7.064-.014,14.13.015,21.195a13.114,13.114,0,0,0,1.424,1.464c.3-.325.618-.635.931-.949.073.073.22.22.3.292-1.471,1.275-2.9,2.6-4.377,3.861-.932-.957-1.9-1.88-2.822-2.842-.415.369-.795.773-1.185,1.167l-.318-.247c.706-.675,1.462-1.294,2.176-1.963-.006-5.354,0-10.708-.006-16.061-.017-1-.527-2.2-1.648-2.324ZM34.367,11c1.582-1.179,3.133-2.4,4.716-3.575.008,3.892,0,7.786,0,11.679,1.34-1.105,2.69-2.2,4.016-3.318,1.064,1.1,2.058,2.277,3.154,3.345q.694-.5,1.422-.945c-.087.617-.825.828-1.208,1.259,0,2.128,0,4.255,0,6.383.031,1.591-.2,3.171-.246,4.76A6.361,6.361,0,0,1,44.142,35.2a6.76,6.76,0,0,1-4.013,1.447l-.1.138.038-.125q-.737,0-1.471-.055a5.926,5.926,0,0,0,1.8-1.049,6.214,6.214,0,0,0,1.481-2.027,12.552,12.552,0,0,0,.507-3.878c-.012-2.917.014-5.835-.014-8.75-.649-.847-1.427-1.594-2.116-2.411A13.184,13.184,0,0,0,39.1,19.68c-.026,3.01,0,6.022-.011,9.032.391.389.779.781,1.173,1.167q.473-.475.946-.954l.28.276c-1.531,1.2-3.047,2.413-4.578,3.609-.969-.86-1.915-1.745-2.869-2.623-.32.239-.64.481-.962.718l-.272-.288c.735-.473,1.456-.967,2.183-1.45q0-8.029,0-16.056a2.507,2.507,0,0,0-.211-1.214c-.143-.279-.464-.367-.7-.536-.054-.177.2-.252.3-.363ZM139.82,8.155c-1.439,1.165-2.846,2.366-4.272,3.548-.015-1.115.019-2.227-.019-3.342-.22-.011-.318.089-.287.3q-.012,11.818,0,23.636c-.778-.149-1.557-.3-2.327-.478-.012-6.645,0-13.288,0-19.935a3.678,3.678,0,0,0-.842-2.327,4,4,0,0,0-2.806-1.267,4.576,4.576,0,0,0-3.223,1.447,3.3,3.3,0,0,0-.991,2.993,2.392,2.392,0,0,1,.93-1.8,1.655,1.655,0,0,1,1.979.578,3.186,3.186,0,0,1,.394,1.749c0,1.8,0,3.592,0,5.389-1.185.018-2.584.21-3.269,1.309a2.993,2.993,0,0,0-.429,3.093,2.758,2.758,0,0,0,2.319,1.677c-.542-.35-1.093-.967-.773-1.654a1.923,1.923,0,0,1,2.136-.589c.029,3.188.015,6.374.008,9.562a4.9,4.9,0,0,0-2.725,2.063,4.426,4.426,0,0,0,1.952,5.826,6.669,6.669,0,0,0,3.085.429c2.955-.176,5.762-1.349,8.723-1.447a1.259,1.259,0,0,1,1.167,1.673,3.032,3.032,0,0,1-1.3,1.562,6.355,6.355,0,0,0,2.886-1.317,3.966,3.966,0,0,0,1.279-3.2,3.279,3.279,0,0,0-1.983-2.53,6.817,6.817,0,0,0-4.249-.432c-2.655.306-5.242,1.149-7.923,1.221a1.877,1.877,0,0,1-1.941-1.474,1.92,1.92,0,0,1,1.2-1.979,7.707,7.707,0,0,1,4.88-.119c1.848.193,3.582.947,5.432,1.137a4.288,4.288,0,0,0,3.028-.719,3.116,3.116,0,0,0,1.313-2.622c.011-6.271-.011-12.542.012-18.813a16.239,16.239,0,0,0,1.7-1.52c-.7.173-1.136.828-1.707,1.229C142.04,10.072,140.936,9.109,139.82,8.155Zm-3.131,3.169c.643.551,1.276,1.113,1.918,1.669,0,1.975,0,3.95,0,5.925a1.982,1.982,0,0,1-1.083.674,2.425,2.425,0,0,1-1.979-.655q0-3.459,0-6.917c.383-.23.765-.459,1.144-.7Zm-1.144,8.161a3.057,3.057,0,0,0,3.062,0c0,.9,0,1.8,0,2.691a2.021,2.021,0,0,0-1.378-.647,2.759,2.759,0,0,0-1.684.647C135.547,21.283,135.543,20.384,135.544,19.485Zm1.677,2.331a1.818,1.818,0,0,1,1.386.945c0,2.5,0,5,0,7.5a2.3,2.3,0,0,1-1.056,1.864,2.888,2.888,0,0,1-1.99.421c-.038-3.266,0-6.537-.015-9.8a2.354,2.354,0,0,1,1.677-.93ZM212.6,12.231c.992-.87,1.926-1.8,2.94-2.649.857.9,1.761,1.765,2.632,2.656q-1.569,1.468-3.157,2.912c-.8-.978-1.624-1.934-2.414-2.92Zm-114.51.931a4.618,4.618,0,0,1,2.121-.491,2.625,2.625,0,0,0-1.214,1.66,1.8,1.8,0,0,0,.781,1.646c.883.707,2.018,1.1,2.738,2.009a2.434,2.434,0,0,1,.54,1.554c0,2.97,0,5.939,0,8.908.79.638,1.583,1.269,2.371,1.908l.691-.446c-.011-3.241.017-6.484-.014-9.724a15.506,15.506,0,0,0-1.432-1.249c1.139-1.049,2.255-2.125,3.417-3.148,1.011.992,2.073,1.931,3.11,2.9q-.59.624-1.214,1.216c-.008,2.849,0,5.7,0,8.548,1.035.8,2.07,1.606,3.116,2.4.147-.086.3-.17.447-.254-.015-3.48,0-6.959-.009-10.439-.479-.409-.975-.8-1.448-1.216,1.118-1.056,2.249-2.095,3.373-3.143q1.679,1.314,3.353,2.635a12.982,12.982,0,0,1,1.222-1.22l.23.326c-.952.848-1.9,1.707-2.822,2.588-.08,2.774,0,5.558-.038,8.334-2.424,1.592-4.955,3.045-7.413,4.595-1.3-.929-2.557-1.909-3.837-2.86-1.148.923-2.3,1.848-3.454,2.762-.165.184-.335-.084-.472-.161-1.081-.868-2.156-1.744-3.25-2.592-.459.4-.941.776-1.4,1.177-.073-.07-.217-.21-.291-.279.562-.389,1.112-.8,1.673-1.187q0-4.035,0-8.069a2.947,2.947,0,0,0-.746-1.981,12.8,12.8,0,0,1-1.7-1.686,3.789,3.789,0,0,1-.337-2.683A4.228,4.228,0,0,1,98.088,13.162Zm170.4,1.922a1.079,1.079,0,0,1,.007.877,2.122,2.122,0,0,1-2.044,1.056,3.448,3.448,0,0,1-2.013-1.221c-.928.622-1.86,1.239-2.786,1.86a19.566,19.566,0,0,1-3.434,1.745c0,1.522,0,3.041,0,4.563.865.721,1.755,1.41,2.6,2.151-.651.689-1.292,1.388-1.906,2.109a4.571,4.571,0,0,0-1.263,2.657,3.4,3.4,0,0,0,1.485,3.028,1.79,1.79,0,0,0,1.531.3c-.655-.234-1.461-.709-1.4-1.508a1.522,1.522,0,0,1,1.826-1.045,3.907,3.907,0,0,1,1.906,1.393,50.486,50.486,0,0,1,6.254-3.839c-.017-1.931.027-3.866-.019-5.8-.96-.674-1.876-1.408-2.825-2.094a11.954,11.954,0,0,0,2.434-4.21,2.061,2.061,0,0,0-.348-2.025Zm-6.4,2.894a4.294,4.294,0,0,0,2.668,2.017,3.259,3.259,0,0,0,3.058-1.2,17.234,17.234,0,0,1-4.344,4.876c-.453-.481-.941-.929-1.389-1.412.018-1.427,0-2.856.007-4.283Zm1.642,5.772c.5.423,1,.853,1.5,1.278.23.138.117.426.149.643-.014,1.658.021,3.322-.019,4.98a4.752,4.752,0,0,0-1.73-2.14,3.7,3.7,0,0,0-3.9-.065,5.5,5.5,0,0,0-1.37,1.19,12.537,12.537,0,0,1,2.4-2.925c1.007-.97,2.015-1.94,2.97-2.962ZM56.98,15.791c-1.323.766-2.6,1.6-3.9,2.408-1.1.573-2.213,1.113-3.319,1.669,0,3.1,0,6.2.008,9.3a15.6,15.6,0,0,0-1.451,1.049c.083.049.247.149.329.2A11.954,11.954,0,0,1,49.8,29.5c1.37,1.139,2.663,2.372,4.031,3.518l.272-.142c2.315-1.794,4.654-3.562,6.97-5.355l-.287-.253c-1.289,1-2.543,2.062-3.82,3.081-1.055-.949-2.075-1.936-3.127-2.89-.358-.262-.158-.759-.184-1.129,2.16-1.582,4.322-3.164,6.45-4.788-1.062-1.9-2.091-3.826-3.119-5.749Zm-3.338,2.285c1.093,1.8,2.192,3.586,3.273,5.389q-1.649,1.16-3.276,2.343c-.011-2.577-.016-5.155,0-7.732Zm39.142-2.289c-.932.614-1.871,1.22-2.825,1.8-1.395.873-2.907,1.53-4.367,2.281,0,3.1-.008,6.2,0,9.3-.45.335-.948.6-1.386.953.046.081.142.244.188.325.485-.326.965-.661,1.462-.968,1.254,1.2,2.526,2.379,3.789,3.568,2.363-1.755,4.681-3.572,7.02-5.359.3-.061.054-.548-.138-.36-1.268.983-2.5,2.016-3.747,3.024q-1.47-1.458-2.928-2.924c-.316-.277-.129-.74-.145-1.1,2.079-1.543,4.094-3.175,6.178-4.712C94.929,19.634,93.806,17.734,92.785,15.788Zm-3.1,2.35c1.072,1.745,2.054,3.549,3.043,5.343-1.021.749-2.008,1.543-3.02,2.3C89.66,23.238,89.707,20.687,89.684,18.138ZM153.179,15.8c-1.023.6-2.032,1.21-3.024,1.853a32.638,32.638,0,0,1-3.678,1.772c.029,3.252.008,6.5.011,9.757-.415.413-.834.825-1.236,1.248.084,0,.253-.017.337-.023.294-.314.6-.62.9-.926,1.392,1.139,2.763,2.3,4.145,3.453.228.22.486-.108.708-.188,2.223-1.216,4.324-2.648,6.614-3.74.035-3.03.011-6.059.015-9.091.413-.413.832-.825,1.236-1.248-.081,0-.243.008-.325.011-.386.317-.776.625-1.164.938C156.206,18.341,154.7,17.06,153.179,15.8Zm-2.592,2.247c1.093,1.027,2.206,2.039,3.3,3.07-.011,3.226-.008,6.45-.008,9.676-1.121-.983-2.185-2.025-3.292-3.024V18.042Z" transform="translate(0 0)" fill="#242424"/><path d="M985.31,76.706c1.577-2.421,3.188-4.82,4.8-7.216a4.541,4.541,0,0,0,2.479,1.056,3.9,3.9,0,0,0,2.33-1.061,5.71,5.71,0,0,1-1.608,3.57,3.316,3.316,0,0,1-3.3.6,6.034,6.034,0,0,1-1.787-.991,4.395,4.395,0,0,0-.23.691c2.239,3.371,4.437,6.774,6.636,10.173a11.349,11.349,0,0,0,1.393-1.144l.348.22c-1.582,1.41-3.214,2.764-4.835,4.129C989.456,83.4,987.418,80.03,985.31,76.706Zm75.727-7.231c-.974.593-1.951,1.184-2.913,1.8a47.282,47.282,0,0,1-4.268,2.281c.015,3.1,0,6.2.008,9.3-.487.322-.968.649-1.455.965l.253.31a15.432,15.432,0,0,1,1.252-.949c1.263,1.174,2.584,2.285,3.866,3.441.122.2.3,0,.425-.084q3.463-2.669,6.936-5.321c-.271-.475-.579-.015-.85.18q-1.628,1.325-3.257,2.645c-1.113-1.015-2.188-2.068-3.323-3.058a9.478,9.478,0,0,1,0-.957c2.166-1.569,4.308-3.175,6.457-4.769Q1062.611,72.355,1061.036,69.475Zm-3.342,2.339c1.171,1.732,2.2,3.561,3.3,5.343-1.115.764-2.2,1.572-3.307,2.343C1057.706,76.938,1057.689,74.375,1057.695,71.814ZM971.686,69.73c.876.8,1.612,1.738,2.425,2.6.885-.848,1.75-1.721,2.6-2.6.622.4,1.269.957,2.067.8.562-.038.854-.589,1.332-.815a5.058,5.058,0,0,1-1.043,3.312,3.005,3.005,0,0,1-3.755.645,14.822,14.822,0,0,1-1.185-.909c.011,3.2.006,6.4,0,9.608.631.485,1.263.969,1.912,1.432.472-.309.834-.879,1.43-.932-1.4,1.332-2.866,2.6-4.325,3.869-1.1-1.033-2.217-2.041-3.3-3.087-.422.38-.813.793-1.215,1.193l-.257-.3c.531-.591,1.124-1.124,1.667-1.7-.02-2.741.011-5.481-.014-8.22a21.5,21.5,0,0,0-1.162-1.954c-.5.3-.865.911-1.488.932C968.8,72.285,970.278,71.047,971.686,69.73Zm56.814,3.427c1.3-1.141,2.578-2.31,3.889-3.442.94,1.037,1.912,2.044,2.836,3.1,1.384-1,2.713-2.075,4.083-3.1.96,1.029,1.9,2.075,2.871,3.1,1.358-1.029,2.7-2.079,4.067-3.094.934,1.041,1.9,2.056,2.842,3.088.578-.369,1.11-.811,1.7-1.165.044.343-.268.5-.485.689-.316.254-.622.521-.937.773-.026,2.851.006,5.7-.017,8.552q.815.846,1.663,1.66c.3-.311.6-.616.9-.934l.351.219c-1.428,1.407-2.9,2.771-4.368,4.139-1.034-1.22-2.117-2.4-3.127-3.642.245-.225.484-.459.72-.695q0-3.689,0-7.375c-.781-.871-1.559-1.745-2.364-2.594-.233.237-.465.473-.7.712,0,3.074.012,6.149-.008,9.223.387.435.824.824,1.217,1.257-1.058.939-2.078,1.922-3.129,2.869q-1.474-1.55-2.9-3.143c.271-.334.814-.576.729-1.084-.012-2.4.012-4.8-.012-7.193a29.344,29.344,0,0,0-2.15-2.629c-.222.236-.447.467-.674.7.006,2.978-.017,5.957.011,8.935a12.935,12.935,0,0,0,1.2,1.491c-1.027,1.08-2.088,2.128-3.159,3.165-1.023-1.219-2.082-2.405-3.113-3.616.322-.25.646-.5.969-.746-.009-2.516-.018-5.033,0-7.548-.6-.747-1.265-1.445-1.9-2.166a8.07,8.07,0,0,1-1.361.989c-.025-.234.206-.346.352-.488Z" transform="translate(-808.047 -53.684)" fill="#242424"/><path d="M1307.381,74.671c1.347-1.234,2.742-2.421,4.1-3.641.969,1.1,1.911,2.229,2.875,3.336a13.981,13.981,0,0,1,1.5-1.18.658.658,0,0,1-.253.458c-.415.345-.826.691-1.245,1.026.006,2.855-.012,5.709.009,8.565.545.616,1.109,1.219,1.617,1.868.424-.259.778-.612,1.182-.9l.344.181c-1.346,1.262-2.742,2.471-4.145,3.667-.933-1.121-1.889-2.223-2.843-3.327a15.1,15.1,0,0,1-1.216,1.161c-.064-.06-.193-.182-.258-.243.4-.383.786-.79,1.2-1.17.032-2.594,0-5.19.015-7.784-.025-.361.092-.788-.19-1.076-.5-.62-.958-1.272-1.49-1.865a10.4,10.4,0,0,1-1.208.926Z" transform="translate(-1095.99 -55)" fill="#242424"/></g></svg>