<svg xmlns="http://www.w3.org/2000/svg" width="256" height="33.355" viewBox="0 0 256 33.355"><g opacity="0.5"><path d="M223.888,13.232V33.355h6.432V19.94h23.523V33.355h6.432V13.232H223.888m5.7-6.524h24.81C257.886,6.065,260.367,2.94,261.1,0H222.877a9.351,9.351,0,0,0,6.708,6.708M204.316,33.355a9.509,9.509,0,0,0,5.7-6.524H181.068V.092h-6.524V33.355h29.772M126.3,6.616h22.972c3.492-1.011,6.34-3.676,7.075-6.524H119.962V19.756h29.772v6.892h-23.34a13.156,13.156,0,0,0-8.362,6.708h38.134V13.232H126.395L126.3,6.616m-56.6.092h24.81A8.92,8.92,0,0,0,101.217,0H62.9a9.324,9.324,0,0,0,6.8,6.708m0,13.14h24.81a8.92,8.92,0,0,0,6.708-6.708H62.9a9.324,9.324,0,0,0,6.8,6.708m0,13.508h24.81a8.92,8.92,0,0,0,6.708-6.708H62.9a9.179,9.179,0,0,0,6.8,6.708" transform="translate(-5.102)" fill="#242424"/><path d="M0,.092A9.238,9.238,0,0,0,6.708,6.708H17.183l.551.184V33.263h6.524V6.892l.551-.184H35.285A9.386,9.386,0,0,0,41.993.092V0L0,.092" fill="#242424"/></g></svg>