<svg xmlns="http://www.w3.org/2000/svg" width="73.057" height="65" viewBox="0 0 73.057 65"><path d="M45.372,63.4a31.7,31.7,0,0,1-6.734-4.558c-.671-.578-1.335-1.184-1.975-1.8-.523.5-1.036.978-1.525,1.406a32.484,32.484,0,0,1-7.081,4.825,14.823,14.823,0,0,1-6.348,1.7,6.888,6.888,0,0,1-3.487-.857,6.662,6.662,0,0,1-2.358-2.391A11.723,11.723,0,0,1,14.495,58a28.135,28.135,0,0,1,.266-10.51c.167-.872.359-1.75.573-2.608-.657-.187-1.321-.4-1.975-.617a29.145,29.145,0,0,1-9.7-5.246C1.265,36.916,0,34.642,0,32.439A6.66,6.66,0,0,1,.893,29.2a11.729,11.729,0,0,1,2.543-3.049,28.126,28.126,0,0,1,9.238-5.02c.847-.3,1.757-.581,2.7-.851-.2-.8-.382-1.614-.54-2.42a29.169,29.169,0,0,1-.363-10.714,11.925,11.925,0,0,1,1.343-3.8A6.556,6.556,0,0,1,18.171.923,6.759,6.759,0,0,1,21.6.071a14.74,14.74,0,0,1,6.46,1.793,34.34,34.34,0,0,1,7.287,5.087c.406.361.813.737,1.21,1.118.59-.57,1.2-1.131,1.819-1.67a32.828,32.828,0,0,1,6.894-4.731A14.1,14.1,0,0,1,51.384,0a6.591,6.591,0,0,1,3.337.827c1.931,1.114,3.258,3.385,3.837,6.566a30.628,30.628,0,0,1-.479,11.329c-.112.537-.234,1.077-.363,1.6.786.226,1.578.476,2.351.742a29.149,29.149,0,0,1,9.454,5.054,11.91,11.91,0,0,1,2.615,3.066,6.566,6.566,0,0,1,.92,3.251c0,2.229-1.3,4.514-3.771,6.6a30.67,30.67,0,0,1-10.053,5.245c-.427.141-.871.28-1.359.424.171.688.318,1.345.438,1.953a29.157,29.157,0,0,1,.32,11.023c-.617,3.123-1.951,5.357-3.858,6.461A6.729,6.729,0,0,1,51.359,65,13.993,13.993,0,0,1,45.372,63.4ZM44.96,47.029A73.368,73.368,0,0,1,38.837,54.8c.611.589,1.229,1.152,1.837,1.675a29.429,29.429,0,0,0,5.909,4.04,11.254,11.254,0,0,0,4.758,1.365,3.7,3.7,0,0,0,1.869-.437c1.12-.649,1.969-2.259,2.391-4.535a26.376,26.376,0,0,0-.351-9.643c-.112-.562-.244-1.157-.4-1.767A72.725,72.725,0,0,1,44.96,47.029Zm-27.133,1.04a26.378,26.378,0,0,0-.377,8.753,9.857,9.857,0,0,0,.871,2.911,3.891,3.891,0,0,0,1.462,1.679,3.84,3.84,0,0,0,1.929.438,9.774,9.774,0,0,0,3.195-.632A26.378,26.378,0,0,0,33.085,56.1c.472-.414.941-.845,1.391-1.282a75.784,75.784,0,0,1-6.27-7.749,73.265,73.265,0,0,1-9.845-1.425C18.16,46.445,17.981,47.262,17.827,48.069Zm18.823,4.5A66.5,66.5,0,0,0,40.938,47.3c-1.46.066-2.944.1-4.41.1-1.44,0-2.878-.028-4.274-.083C33.692,49.207,35.172,50.976,36.65,52.571ZM23.226,32.514c.961,1.993,2.01,3.974,3.117,5.886s2.316,3.831,3.57,5.664c2.137.139,4.362.209,6.615.209s4.512-.079,6.691-.235c1.223-1.839,2.4-3.741,3.5-5.655s2.168-3.916,3.139-5.914c-.983-1.98-2.042-3.953-3.149-5.862s-2.287-3.8-3.521-5.621c-2.191-.167-4.433-.252-6.665-.252s-4.457.084-6.652.25c-1.249,1.831-2.442,3.729-3.542,5.639h0C25.232,28.535,24.187,30.516,23.226,32.514ZM19.2,42.633a66.518,66.518,0,0,0,6.733,1.083c-.792-1.229-1.564-2.491-2.294-3.752-.717-1.239-1.414-2.511-2.071-3.78C20.644,38.381,19.848,40.551,19.2,42.633Zm30.224-2.691c-.722,1.252-1.477,2.5-2.243,3.718A66.677,66.677,0,0,0,54,42.5a66.553,66.553,0,0,0-2.453-6.427C50.873,37.369,50.16,38.671,49.427,39.942ZM13.7,24.08a26.39,26.39,0,0,0-7.771,4.046,9.852,9.852,0,0,0-2.087,2.209,3.9,3.9,0,0,0-.724,2.1c0,1.294.968,2.837,2.727,4.343a26.407,26.407,0,0,0,8.521,4.526c.587.2,1.193.39,1.8.564a75.907,75.907,0,0,1,3.6-9.358,74.87,74.87,0,0,1-3.56-9.226C15.374,23.526,14.528,23.792,13.7,24.08Zm39.623,8.375a73.283,73.283,0,0,1,3.7,9.256c.424-.126.837-.255,1.227-.384a29.031,29.031,0,0,0,8.554-4.282c2.019-1.571,3.13-3.206,3.13-4.6a3.835,3.835,0,0,0-.75-2.107,10.194,10.194,0,0,0-2.157-2.225,27.537,27.537,0,0,0-7.977-4.088c-.68-.234-1.41-.464-2.172-.686A73.14,73.14,0,0,1,53.324,32.454Zm-3.91-7.41c.727,1.255,1.435,2.534,2.1,3.8a66.828,66.828,0,0,0,2.338-6.291c-2.1-.48-4.342-.872-6.662-1.165C47.957,22.588,48.7,23.818,49.414,25.044ZM19.246,22.522c.636,2.048,1.417,4.176,2.322,6.322.657-1.274,1.351-2.545,2.062-3.777s1.469-2.479,2.24-3.681C23.554,21.674,21.326,22.056,19.246,22.522ZM40.43,8.754c-.566.493-1.131,1.012-1.68,1.541A73.053,73.053,0,0,1,44.925,18a74.768,74.768,0,0,1,9.769,1.543c.117-.476.228-.966.328-1.453a29.026,29.026,0,0,0,.563-9.549c-.352-2.534-1.213-4.314-2.424-5.012a3.563,3.563,0,0,0-1.8-.418C48.576,3.114,44.488,5.223,40.43,8.754ZM18.4,19.513A76.3,76.3,0,0,1,28.152,18a74.6,74.6,0,0,1,6.223-7.7c-.374-.358-.743-.7-1.1-1.012A32.2,32.2,0,0,0,26.82,4.733a12.04,12.04,0,0,0-5.194-1.55,3.745,3.745,0,0,0-1.892.441,3.834,3.834,0,0,0-1.448,1.7,10.2,10.2,0,0,0-.844,2.981,27.529,27.529,0,0,0,.459,8.953h0C18.048,18.012,18.217,18.769,18.4,19.513Zm22.46-1.8a66.783,66.783,0,0,0-4.3-5.189c-1.463,1.579-2.922,3.325-4.336,5.188,1.432-.067,2.878-.1,4.3-.1C37.966,17.615,39.424,17.649,40.863,17.717ZM30.005,32.439a6.524,6.524,0,1,1,6.523,6.524A6.524,6.524,0,0,1,30.005,32.439Z" fill="#242424" opacity="0.5"/></svg>