<svg xmlns="http://www.w3.org/2000/svg" width="251.334" height="31" viewBox="0 0 251.334 31"><path d="M106.188,31c-4.851,0-6.367-.985-6.367-4.624V16.068c0-3.714,1.516-4.623,6.367-4.623h15.386c4.245,0,5.988.758,6.291,3.486h-21.45l-.606.455V26.755l.606.606h21.3c-.152,2.8-1.819,3.638-6.139,3.638Zm-69.58-.076V12.051l.758-.606H58.589c3.941,0,5.76,1.061,5.76,3.714v4.32c0,2.729-1.819,3.79-5.76,3.79H42.975l-.53.53v7.125Zm5.836-15.538V19.4l.606.53H55.86c1.895,0,2.729-.227,2.729-1.516V16.372c0-1.288-.909-1.516-2.729-1.516H42.975ZM6.291,30.924c-4.169,0-5.912-.682-6.291-3.259,0-.076.53-.379.53-.379H22.966l.379-.531V23.269l-.455-.455H7.352c-4.851,0-6.367-.985-6.367-4.624v-2.2c0-3.714,1.516-4.623,6.367-4.623H21.98c3.411,0,5.306.909,5.988,2.729l-.3.682h-21l-.455.379v3.335l.455.53H22.208c4.851,0,6.443.985,6.443,4.623V26.3c0,3.714-1.592,4.623-6.443,4.623Zm189.562,0-8.565-6.215c1.592-1.364,3.335-2.653,5-3.941l12.733,9.323-.379.834Zm-25.694,0-.682-1.061C174.846,24.644,198.862,2.445,251,.015c-4.083.21-45.042,2.992-72.887,30.909Zm-34.108,0V17.963h17.888V21.3H142.645l-.606.531v5.305l.682.455h19.707v3.335Zm-49.8,0-2.577-3.562-1.213-.682H65.79l2.88-3.562H79.887l.3-.682-5.078-7.428,3.108-3.79L93,30.924Zm83.9-18.645.455-.909h8.792l6.442,4.851c-2.122,1.061-4.169,2.122-5.988,3.183Zm-34.108,2.8V11.445h26.6v3.638ZM251.335,0,251,.015C251.222,0,251.335,0,251.335,0Z" fill="#242424" opacity="0.5"/></svg>