<svg xmlns="http://www.w3.org/2000/svg" width="714.028" height="461.653" viewBox="0 0 714.028 461.653"><path d="M-3046.7,462c49.592-24.406,114.536-55.479,183.048-85.846a213.971,213.971,0,0,0,39.522-22.55,165.626,165.626,0,0,0,28.551-26.349,149.448,149.448,0,0,0,30.532-58.482,358.339,358.339,0,0,1,11.076,88.586,359.63,359.63,0,0,1-7.253,71.951q-3.379,16.51-8.332,32.689Zm-272.372,0c21.978-18.7,44.513-31.214,56.7-37.981,2.061-1.144,3.84-2.131,5.279-2.963,10.924-6.3,49.536-26.892,106.645-55.335,47.5-23.66,121.691-59.647,205.347-96.728,42.265-18.734,73.745-41.284,93.563-67.024a121.933,121.933,0,0,0,18.247-32.7,102.64,102.64,0,0,0,6.009-28.664c5.8,7.573,11.361,15.482,16.536,23.5-4.242,30.039-14.61,54.132-31.7,73.656-14.721,16.821-31.791,27.369-46.852,36.674-1.642,1.015-3.193,1.973-4.76,2.952-16.934,10.569-103.984,51.834-188.17,91.741-69.523,32.957-135.181,64.08-154.828,74.848-7.3,4-18.226,9.988-30.6,18.024Zm-133.341,0q-4.531-14.8-7.752-29.907A359.413,359.413,0,0,1-3468,357.359a359.612,359.612,0,0,1,7.253-71.949,355.228,355.228,0,0,1,20.8-67.015,357.042,357.042,0,0,1,32.916-60.644,359.573,359.573,0,0,1,43.6-52.838A359.661,359.661,0,0,1-3310.6,61.319,357.116,357.116,0,0,1-3249.952,28.4a355.285,355.285,0,0,1,67.016-20.8A359.678,359.678,0,0,1-3110.987.346a356.408,356.408,0,0,1,115.843,19.212,355.5,355.5,0,0,1,99.975,53.382c-5.79,24.731-16.4,44.921-32.439,61.726-13.851,14.514-29.407,24.127-43.13,32.607l-.026.017c-1.642,1.014-3.192,1.972-4.741,2.939-16.931,10.568-103.967,51.826-188.136,91.725-69.541,32.964-135.212,64.095-154.862,74.864a354.342,354.342,0,0,0-32.387,19.8,250.447,250.447,0,0,0-37.065,31.2,200.317,200.317,0,0,0-32.987,44.89A187.13,187.13,0,0,0-3433.488,462Zm577.009-372.9a359.328,359.328,0,0,1,45.246,47.782l-.006,0A360.307,360.307,0,0,0-2875.406,89.1Z" transform="translate(3468 -0.346)" fill="#fff" opacity="0.03"/></svg>