<?xml version="1.0" encoding="utf-8"?>
<!-- Generator: Adobe Illustrator 23.0.1, SVG Export Plug-In . SVG Version: 6.00 Build 0)  -->
<svg version="1.1" id="Layer_1" xmlns="http://www.w3.org/2000/svg" xmlns:xlink="http://www.w3.org/1999/xlink" x="0px" y="0px"
	 viewBox="0 0 254 568" style="enable-background:new 0 0 254 568;" xml:space="preserve">
<style type="text/css">
	.st0{opacity:3.000000e-02;}
	.st1{fill:#FFFFFF;}
	.st2{fill:#009DFF;}
	.st3{opacity:5.000000e-02;fill:#FFFFFF;}
	.st4{opacity:0.397;fill:#FFFFFF;enable-background:new    ;}
</style>
<g class="st0">
	<path class="st1" d="M63.6,58.4C57,62.1,43.3,69.7,32,81.7c-14,14.8-19.8,31.4-17.3,49.5c2,2.2,4,4.4,6.1,6.5l0,0
		c0-9.4,2.2-18.6,6.3-27c3.7-7.6,8.7-14.4,14.7-20.4c11.8-12,25.9-19.7,32.6-23.4c8.4-4.6,36.3-17.8,65.9-31.8
		C169.2,21.4,198.9,7.3,213,0h-31.2c-28.6,13-53.6,25.2-70.6,33.6C87,45.7,70.5,54.5,65.9,57.1C65.3,57.5,64.5,57.9,63.6,58.4z"/>
	<path class="st1" d="M0,55.7c3-4.6,6.4-8.8,10.2-12.7C15,38.1,20.3,33.6,26,29.7c4.4-3.1,9-5.9,13.8-8.4C46,17.9,63,9.7,83.4,0H0
		V55.7z"/>
	<path class="st1" d="M254,25.3c-1.3,1.1-2.6,2.1-3.9,3.1c-5.2,3.8-10.9,7-16.8,9.6c-36,16-69.7,32.4-91.6,43.3
		c-25.7,12.8-45.5,23.3-53,27.6c-1.3,0.8-2.7,1.5-4.2,2.3c-3.7,1.9-7.3,4-10.7,6.3c-3.8,2.6-7.2,5.8-10,9.4
		c-3.2,4.4-5.5,9.4-6.7,14.7c-1.5,7.3-1.9,14.7-0.9,22.1c13.3,7.2,27.6,12.3,42.5,15.2c9.7,1.9,19.6,2.9,29.5,2.9
		c12.8,0,25.5-1.6,37.9-4.8c37.4-9.6,68-32.4,88-62.1V25.3z"/>
</g>
<path id="Group_5" transform="translate(2754 1081.253)" class="st2" d="M-2661.5-986.9h4l2.4-6.9l2.4,6.9h4l4.5-14h-4.8l-2,6.7
	l-2.2-6.7h-4l-2.2,6.7l-2-6.7h-4.9L-2661.5-986.9z M-2636.7-986.7c4.1,0.1,7.5-3.1,7.6-7.1c0,0,0-0.1,0-0.1v0c0-4-3.3-7.3-7.4-7.2
	c-0.1,0-0.1,0-0.2,0c-4.1-0.1-7.5,3.1-7.6,7.1c0,0,0,0.1,0,0.1v0c0,4,3.3,7.2,7.4,7.2C-2636.9-986.7-2636.8-986.7-2636.7-986.7
	L-2636.7-986.7z M-2636.7-990.8c-1.6,0-2.9-1.4-2.9-3c0,0,0-0.1,0-0.1v0c-0.1-1.6,1.1-3,2.8-3.1c0,0,0.1,0,0.1,0
	c1.6,0,2.9,1.4,2.9,3c0,0,0,0.1,0,0.1v0c0.1,1.6-1.1,3-2.8,3.1C-2636.6-990.8-2636.7-990.8-2636.7-990.8L-2636.7-990.8z
	 M-2627.9-987h4.6v-4h1l2.6,4h5.3l-3.2-4.7c1.7-0.7,2.8-2.4,2.7-4.2v0c0.1-1.2-0.4-2.4-1.3-3.3c-1-1-2.5-1.6-5-1.6h-6.8V-987z
	 M-2623.3-994.2v-2.7h2c1.1,0,1.8,0.4,1.8,1.3v0c0,0.9-0.7,1.3-1.8,1.3H-2623.3z M-2613.7-987h11.1v-4h-6.5v-9.9h-4.6L-2613.7-987z
	 M-2601.6-987h5.1c5.6,0,8.4-2.9,8.4-7v0c0-4.1-2.8-6.8-8.3-6.8h-5.3L-2601.6-987z M-2596.9-991v-5.8h0.8c2.1,0,3.5,0.9,3.5,2.9v0
	c0,2-1.4,2.9-3.5,2.9L-2596.9-991z M-2652.2-1002.8v-4.2h4.4v1.1h-3.1v0.4h2.7v0.9h-2.7v0.7h3.1v1.1H-2652.2z M-2655-1002.8l-2.2-3
	v3h-1.3v-4.2h2l2.3,3v-3h1.2v4.2H-2655z M-2662.4-1002.8c-1.2,0-2.1-0.9-2.1-2.1c0-1.2,0.9-2.1,2.1-2.1c0,0,0,0,0,0h1.3
	c1.2,0,2.1,0.9,2.1,2.1c0,1.2-0.9,2.1-2.1,2.1c0,0,0,0,0,0H-2662.4z M-2663.3-1004.9c0,0.6,0.4,1,1,1h0.9c0.6,0,1-0.4,1-1
	c0-0.6-0.4-1-1-1h-0.9C-2662.8-1005.9-2663.3-1005.5-2663.3-1004.9z"/>
<path id="Path_287" class="st1" d="M94.6,238.9h3l2.5-7.3l2.5,7.3h3l4.2-12.7h-3.6l-2.2,7.3l-2.4-7.3h-3l-2.4,7.3l-2.2-7.3h-3.7
	L94.6,238.9z M114.8,239.1c1.6,0.1,3.2-0.7,4.2-2l-1.9-1.6c-0.5,0.6-1.3,1-2.2,1c-1,0.1-1.9-0.6-2.1-1.6h6.5c0-0.2,0-0.5,0-0.7
	c0-2.9-1.5-5.3-4.9-5.3c-2.7,0-4.9,2.1-4.9,4.8c0,0.1,0,0.2,0,0.2v0c-0.1,2.7,2,5,4.7,5.1C114.4,239.1,114.6,239.1,114.8,239.1z
	 M112.8,233.2c0.2-1.1,0.8-1.8,1.7-1.8c0.9,0,1.6,0.7,1.7,1.8H112.8z M128.6,239.1c1.1,0,2.1-0.4,2.9-1.2v1h3.4v-5.6
	c0.1-1.1-0.3-2.3-1-3.1c-1-0.9-2.4-1.3-3.7-1.2c-1.4,0-2.7,0.2-3.9,0.8l0.7,2.4c0.8-0.4,1.8-0.5,2.7-0.5c1.3,0,1.9,0.6,1.9,1.6v0.2
	c-0.8-0.2-1.5-0.4-2.3-0.4c-2.3,0-3.8,1-3.8,3.1v0c0,1.6,1.3,3,2.9,3C128.4,239.1,128.5,239.1,128.6,239.1L128.6,239.1z
	 M129.8,236.9c-0.6,0.1-1.1-0.3-1.2-0.9c0,0,0-0.1,0-0.1v0c0-0.7,0.6-1.2,1.6-1.2c0.5,0,0.9,0.1,1.3,0.3v0.4c0,0.9-0.7,1.6-1.5,1.6
	C129.9,236.9,129.9,236.9,129.8,236.9L129.8,236.9z M136.6,238.8h3.4v-3c0-2.2,1-3.3,2.8-3.3h0.3v-3.6c-1.4-0.1-2.7,0.8-3.1,2.1v-2
	h-3.4V238.8z M149,239.1c1.6,0.1,3.2-0.7,4.2-2l-1.9-1.6c-0.5,0.6-1.3,1-2.2,1c-1,0.1-1.9-0.6-2.1-1.6h6.5c0-0.2,0-0.5,0-0.7
	c0-2.9-1.5-5.3-4.9-5.3c-2.7,0-4.9,2.1-4.9,4.8c0,0.1,0,0.2,0,0.2v0c-0.1,2.7,2,5,4.7,5.1C148.6,239.1,148.8,239.1,149,239.1z
	 M147,233.2c0.2-1.1,0.8-1.8,1.7-1.8c0.9,0,1.6,0.7,1.7,1.8H147z M93.3,264.1h2.9l1.6-5.1l1.6,5.1h3l3-9.8h-3.3l-1.3,4.9l-1.5-5
	h-2.8l-1.5,4.9l-1.3-4.9h-3.3L93.3,264.1z M111.1,264.3c2.9,0.1,5.3-2.1,5.4-5c0,0,0-0.1,0-0.1v0c0-2.8-2.4-5.1-5.2-5.1
	c-0.1,0-0.1,0-0.2,0c-2.9-0.1-5.3,2.1-5.4,5c0,0,0,0.1,0,0.1v0c0,2.8,2.4,5.1,5.2,5.1C111,264.3,111,264.3,111.1,264.3z
	 M111.1,261.4c-1.2,0-2.1-1-2.1-2.1c0,0,0,0,0-0.1v0c-0.1-1.1,0.8-2.1,1.9-2.2c0,0,0.1,0,0.1,0c1.2,0,2.1,1,2.1,2.2c0,0,0,0,0,0v0
	c0.1,1.1-0.8,2.1-1.9,2.2C111.2,261.4,111.2,261.4,111.1,261.4L111.1,261.4z M117.9,264h3.4v-3c0-2.2,1-3.3,2.8-3.3h0.3v-3.6
	c-1.4-0.1-2.7,0.8-3.1,2.1v-2h-3.4V264z M125.6,264h3.4v-2.3l0.9-1l2,3.3h3.8l-3.5-5.8l3.4-3.9h-3.9l-2.6,3.3v-6.7h-3.4L125.6,264z
	 M136.5,253.4h3.6v-2.5h-3.6V253.4z M136.5,264h3.4v-9.7h-3.4V264z M141.9,264h3.4v-5.3c-0.1-0.8,0.4-1.5,1.2-1.6c0.1,0,0.1,0,0.2,0
	c0.8,0,1.4,0.6,1.4,1.6v5.3h3.4v-6.4c0-2.2-1.2-3.6-3.3-3.6c-1.2,0-2.3,0.6-2.9,1.6v-1.4h-3.4L141.9,264z M158.1,267
	c1.6,0.1,3.1-0.4,4.3-1.4c0.9-1.1,1.4-2.5,1.3-3.9v-7.4h-3.4v1.2c-0.8-0.9-1.9-1.4-3.1-1.4c-2.3,0-4.2,1.9-4.2,4.3
	c0,0.1,0,0.2,0,0.3v0c-0.2,2.3,1.6,4.4,4,4.5c0.1,0,0.2,0,0.4,0c1.2,0,2.3-0.5,3-1.5v0.4c0,1.5-0.8,2.4-2.6,2.4
	c-1.2,0-2.4-0.3-3.4-0.9l-1.1,2.3C154.7,266.6,156.4,267,158.1,267L158.1,267z M158.3,260.5c-1,0.1-1.9-0.7-2-1.7c0,0,0-0.1,0-0.1v0
	c0-1,0.8-1.9,1.9-1.9c0,0,0.1,0,0.1,0c1-0.1,1.9,0.7,2,1.7c0,0,0,0.1,0,0.1v0c0,1-0.8,1.9-1.9,1.9
	C158.4,260.6,158.3,260.5,158.3,260.5L158.3,260.5z M96,289.5c2.9,0.1,5.3-2.1,5.4-5c0,0,0-0.1,0-0.1v0c0-2.8-2.4-5.1-5.2-5.1
	c-0.1,0-0.1,0-0.2,0c-2.9-0.1-5.3,2.1-5.4,5c0,0,0,0.1,0,0.1v0c0,2.8,2.4,5.1,5.2,5.1C95.9,289.5,96,289.5,96,289.5z M96.1,286.6
	c-1.2,0-2.1-1-2.1-2.1c0,0,0,0,0-0.1v0c-0.1-1.1,0.8-2.1,1.9-2.2c0,0,0.1,0,0.1,0c1.2,0,2.1,1,2.1,2.1c0,0,0,0,0,0.1v0
	c0.1,1.1-0.8,2.1-1.9,2.2C96.1,286.6,96.1,286.6,96.1,286.6L96.1,286.6z M102.9,289.2h3.4V284c-0.1-0.8,0.4-1.5,1.2-1.6
	c0.1,0,0.1,0,0.2,0c0.8,0,1.4,0.6,1.4,1.6v5.3h3.4v-6.4c0-2.2-1.2-3.6-3.3-3.6c-1.2,0-2.3,0.6-2.9,1.6v-1.4h-3.4V289.2z
	 M119.3,278.6h3.6v-2.5h-3.6L119.3,278.6z M119.3,289.2h3.4v-9.7h-3.4V289.2z M128.5,289.4c0.8,0,1.6-0.2,2.4-0.6v-2.7
	c-0.4,0.2-0.8,0.3-1.3,0.3c-0.6,0-0.9-0.3-0.9-1v-3.3h2.3v-2.8h-2.3V277h-3.4v2.5h-1.2v2.8h1.2v4
	C125.3,288.5,126.5,289.4,128.5,289.4L128.5,289.4z"/>
<path class="st3" d="M127,365.8c-18.8,0-34,15.2-34,34c0,18.8,15.2,34,34,34c18.8,0,34-15.2,34-34C161,381.1,145.8,365.8,127,365.8z
	 M127,432.8c-18.2,0-33-14.8-33-33s14.8-33,33-33s33,14.8,33,33S145.2,432.8,127,432.8z"/>
<path id="Path_126" class="st4" d="M134.4,392.7v-3.1c0-1.1-3.3-3-7.4-3c-4.1,0-7.4,1.9-7.4,2.9v3.1c0,2.9,5.1,5.2,5.1,7.2
	s-5.1,4.3-5.1,7.2v3.1c0,1.1,3.3,3,7.4,3c4.1,0,7.4-1.9,7.4-2.9V407c0-2.8-5.1-5.2-5.1-7.2S134.4,395.5,134.4,392.7z M121.6,389.7
	c1.6-1,3.5-1.5,5.4-1.4c1.8,0.1,3.7,0.5,5.3,1.4c0.2,0.1,0.9,0.5,0.4,0.8c-1.8,0.9-3.8,1.4-5.8,1.3c-2,0-4-0.5-5.7-1.4
	C120.8,390.1,121.6,389.7,121.6,389.7z M127.7,399.8c0,1.6,1.3,2.6,2.7,3.9c1,1,2.4,2.4,2.4,3.2v1.7c-1.3-0.6-5.1-1.2-5.1-3.3
	c0-0.4-0.2-0.7-0.6-0.8c-0.4,0-0.7,0.2-0.8,0.6c0,0.1,0,0.1,0,0.2c0,2.1-3.8,2.7-5.1,3.3V407c0-0.9,1.4-2.2,2.4-3.2
	c1.4-1.3,2.7-2.4,2.7-3.9c0-1.6-1.3-2.6-2.7-3.9c-1-1-2.4-2.3-2.4-3.2l0-0.4c0.9,0.7,2.6,1.5,5.8,1.5c3.5,0,5.1-1,5.8-1.7l0,0.6
	c0,0.9-1.4,2.2-2.4,3.2C129,397.2,127.7,398.3,127.7,399.8z"/>
</svg>
