<svg xmlns="http://www.w3.org/2000/svg" width="113.099" height="25" viewBox="0 0 113.099 25"><path d="M41.667,11.342l1.976-2.386a7.123,7.123,0,0,0-2.4-1.649,7.434,7.434,0,0,0-6.44.27,6.512,6.512,0,0,0-3.42,5.835,6.791,6.791,0,0,0,.895,3.466,6.53,6.53,0,0,0,2.461,2.442,7.009,7.009,0,0,0,6.4.232,7.966,7.966,0,0,0,2.525-1.78l-1.994-2.143A5.31,5.31,0,0,1,40.1,16.747a3.966,3.966,0,0,1-1.677.411,3.388,3.388,0,0,1-1.8-.495,3.491,3.491,0,0,1-1.277-1.36,4.228,4.228,0,0,1,0-3.858,3.5,3.5,0,0,1,1.277-1.36,3.388,3.388,0,0,1,1.8-.494,3.613,3.613,0,0,1,1.734.475,4.884,4.884,0,0,1,1.509,1.277Zm16.645,8.63L55.591,15.7a4.126,4.126,0,0,0,1.734-1.669,5.152,5.152,0,0,0,.6-2.544,4.182,4.182,0,0,0-1.426-3.383,6.053,6.053,0,0,0-4.017-1.2H46.606V19.972h3.411V16.356h2.534l1.9,3.616h3.859ZM50.018,9.627H52.5a2.328,2.328,0,0,1,1.613.513,1.868,1.868,0,0,1,.568,1.463,1.946,1.946,0,0,1-.568,1.509,2.3,2.3,0,0,1-1.613.522H50.018ZM61.592,19.972H72.085V17.25H65V14.79l6.225-.019v-2.7H65V9.627h6.9V6.906H61.592V19.972Zm17.521-6.654-4.641,6.654H78.46l2.721-4.045,2.777,4.045H88.04l-4.678-6.822L87.667,6.9H83.641l-2.46,3.71L78.739,6.906H74.77Zm15.619,3.914L97.4,14.547a12.947,12.947,0,0,0,1.873-2.283,3.963,3.963,0,0,0,.662-2.078A2.911,2.911,0,0,0,99.345,8.4a3.793,3.793,0,0,0-1.622-1.211,6.069,6.069,0,0,0-2.339-.428A9.2,9.2,0,0,0,89.96,8.714l1.3,2.516a7.619,7.619,0,0,1,1.855-1.221,4.245,4.245,0,0,1,1.742-.438,1.826,1.826,0,0,1,1.1.289.971.971,0,0,1,.391.829,1.986,1.986,0,0,1-.355.988,6.772,6.772,0,0,1-.913,1.156l-4.753,4.883.019,2.255H100.3v-2.74Zm16.7-2.665V11.789H108.3v2.777h-2.442l3.486-7.66H106.1l-3.709,7.941v2.311H108.3v2.814h3.131V17.157h1.677V14.566ZM21.247,3.556l-.023-.019-.009-.008a3.483,3.483,0,0,0-2.842-.677c-2.147.33-2.175,1.707-2.175,1.707s-.019.1-.688.743a4.134,4.134,0,0,0-.936,1.763s1.046-.078,2.147-.138a1.824,1.824,0,0,1,1.762.936c.187.3,0,1.156,0,1.156a.4.4,0,0,1,.248-.055c.1.028,0,.248-.165.523a2.585,2.585,0,0,1-.853.991,10.454,10.454,0,0,0-.951.854,6.574,6.574,0,0,0-.866.853s1.046-.193.661.44-2.817,1.6-4.79-.385A9.3,9.3,0,0,1,9.012,4.753C9.115.882,11.325.017,11.325.017A3.2,3.2,0,0,0,9.342.953c-.472.4-2.193,2.275-1.356,6.9a3.62,3.62,0,0,1-1.01-2C6.142,2.53,7.188.87,7.188.87S4.664,3.4,5.626,6.432A16.678,16.678,0,0,0,7.113,9.708a10,10,0,0,1-2.451-3.5,10.507,10.507,0,0,1-.266-3.3s-2.729,3.8-.091,7.647a16.028,16.028,0,0,0,2.231,2.588,8.758,8.758,0,0,1-3.222-2.368,8.588,8.588,0,0,1-1.762-4.4s-1.093,3.447.083,5.286a13.537,13.537,0,0,0,4.244,3.731A11.039,11.039,0,0,0,2.1,14.03C.7,14.009.01,11.773.01,11.773a9.763,9.763,0,0,0,1.707,4.79c1.508,1.844,2.594,2.483,3.827,2.368a6.11,6.11,0,0,1,2.535.432,8.4,8.4,0,0,0-2.648-.006,9.574,9.574,0,0,1-3.285-.323q-.293-.113-.569-.24a12.666,12.666,0,0,0,23.57-6.443A11.125,11.125,0,0,0,21.247,3.556Z" transform="translate(-0.01 -0.017)" fill="#fff"/></svg>