<svg xmlns="http://www.w3.org/2000/svg" width="80.07" height="25" viewBox="0 0 80.07 25"><path d="M68.454,18.15h3.579l2.23-3.223L76.49,18.15h3.58l-4.019-5.81,4.018-5.809H76.49L74.262,9.753,72.033,6.531H68.454l4.018,5.809ZM47.051,6.531h4.623c4.143,0,6.065,2.423,6.065,5.809s-1.922,5.81-6.065,5.81H47.051Zm7.54,5.809c0-2.174-1.077-3.154-2.916-3.154H50.117v6.307h1.558C53.513,15.494,54.591,14.515,54.591,12.34Zm4.583-5.809V18.15h8.451V15.494H62.239V13.6h4.318V10.963H62.239V9.187h5.286V6.531ZM41.8,18.15h3.066V6.531H41.8ZM36.584,6.531l-3.529,5.444-3.53-5.444h-2.9V18.15H29.69V11.959l2.486,3.834h1.756l2.486-3.818V18.15h3.066V6.531ZM11.5,2.057a10.5,10.5,0,0,1,0,20.887V25H9.454V22.943a10.5,10.5,0,0,1,0-20.887V0H11.5Zm2.091,9.377-2.091,3.8v2.046H9.454V15.229l-2.091-3.8v5.842H5.319V7.724H7.363l2.091,3.8v-3.8H11.5v3.8l2.091-3.8h2.044v9.551H13.588Zm-3.113-7.38A8.446,8.446,0,1,0,18.908,12.5,8.439,8.439,0,0,0,10.476,4.054Z" fill="#fff" fill-rule="evenodd"/></svg>