<?xml version="1.0" encoding="utf-8"?>
<!-- Generator: Adobe Illustrator 23.0.1, SVG Export Plug-In . SVG Version: 6.00 Build 0)  -->
<svg version="1.1" id="Layer_1" xmlns="http://www.w3.org/2000/svg" xmlns:xlink="http://www.w3.org/1999/xlink" x="0px" y="0px"
	 viewBox="0 0 80.1 25" style="enable-background:new 0 0 80.1 25;" xml:space="preserve">
<style type="text/css">
	.st0{fill:#FFFFFF;}
</style>
<path class="st0" d="M30.5,18.8h-4.1V8.7h-5.8v-3h15.4v3h-5.6V18.8z"/>
<path class="st0" d="M56.1,15.7v3.1H41.7V5.6h14.4v3H45.8v2.2h9.7v2.7h-9.7v2.2L56.1,15.7z"/>
<path class="st0" d="M67.1,18.8h-5.5l6.4-6.5l-6.1-6.7h5.3l3.6,4.1l3.6-4.1h5.4l-6.2,6.7l6.5,6.5h-5.5l-3.7-3.9L67.1,18.8z"/>
<path class="st0" d="M15.4,5.6v2.7H4.9v0.1c-0.1,0-0.2,0-0.3,0c-0.2,0-0.3,0.1-0.5,0.1C4,8.7,3.8,8.8,3.8,9C3.7,9.1,3.6,9.3,3.6,9.5
	c0,0.4,0.2,0.7,0.5,0.8c0.2,0.1,0.5,0.2,0.8,0.2v0.2h6.3c0,0,0,0,0,0h0c0.2,0,0.5,0,0.7,0c0.4,0,0.7,0,0.9,0.1
	c0.9,0,1.6,0.3,2.1,0.7c-0.2,0.2-0.2,0.5,0,0.8c0.1,0.1,0.2,0.2,0.2,0.3c-0.2,0.8-0.1,1.9-0.3,2.5c-0.1,0.3,0,0.5,0.2,0.7
	c-0.2,0.6-0.4,1.1-0.2,1.7l-1,1c-0.5,0.2-1.1,0.2-1.8,0.2H0v-2.8h10.1c0.1,0,0.1,0,0.2,0c0.1,0,0.1,0,0.2,0c0.1,0,0.2,0,0.3,0
	c0.1,0,0.3,0,0.4-0.1c0,0,0.1,0,0.1,0c0.2-0.1,0.3-0.2,0.4-0.3c0.1-0.1,0.2-0.3,0.2-0.6c0-0.3-0.1-0.5-0.2-0.6
	c-0.1-0.1-0.3-0.3-0.5-0.3c0,0,0,0-0.1,0c-0.2-0.1-0.4-0.1-0.6-0.1v-0.2H4c0,0-0.1,0-0.1,0l-0.1,0c-0.3,0-0.6,0-0.9-0.1
	c-1.1-0.1-1.9-0.4-2.5-1c0,0,0-0.1,0.1-0.1c0.2-0.3,0.3-0.6,0.3-1c0.1-0.5-0.3-1-0.2-1.4C0.6,9.5,1,9.3,0.9,8.8
	C0.9,8.3,0.4,7.9,0.3,7.3c0-0.1,0-0.2-0.1-0.2l1.2-1.2C1.9,5.7,2.4,5.6,3,5.6L15.4,5.6z"/>
<path class="st0" d="M3.9,5.6v3.1c-0.5,0-0.7,0.5-0.6,1c-0.2,0.4,0,1,0.6,1c0,0,0,0,0,0v2.8H0V7.4l0.3-0.3c0,0,0,0,0,0l0,0l1.2-1.2
	c0,0,0,0,0,0l0.2-0.2L3.9,5.6z"/>
<rect x="2.6" y="8.4" class="st0" width="2.3" height="2.3"/>
<path class="st0" d="M15.2,10.8V17l-0.6,0.6l0,0l-1,1c0,0,0,0,0,0l-0.2,0.2h-2.2v-8H15.2z"/>
<path class="st0" d="M10.5,13.7H12V16h-1.7v-0.1c0.1,0,0.1,0,0.2,0V13.7L10.5,13.7z"/>
<path class="st0" d="M10.3,15.9c0.1,0,0.1,0,0.2,0v0.2H0v-0.2h10.1C10.2,15.9,10.3,15.9,10.3,15.9z"/>
<rect x="4.9" y="8.1" class="st0" width="10.5" height="0.6"/>
<path class="st0" d="M13.7,18.5C13.7,18.5,13.7,18.5,13.7,18.5l-0.2,0.2h0L13.7,18.5z"/>
<path class="st0" d="M15.2,16.9L15.2,16.9l-0.6,0.6l0,0L15.2,16.9z"/>
<rect x="12.5" y="16.4" transform="matrix(0.7071 -0.7071 0.7071 0.7071 -8.1806 14.7716)" class="st0" width="2.5" height="1.7"/>
</svg>
