<?xml version="1.0" encoding="utf-8"?>
<!-- Generator: Adobe Illustrator 23.0.2, SVG Export Plug-In . SVG Version: 6.00 Build 0)  -->
<svg version="1.1" id="Layer_1" xmlns="http://www.w3.org/2000/svg" xmlns:xlink="http://www.w3.org/1999/xlink" x="0px" y="0px"
	 viewBox="0 0 32 32" style="enable-background:new 0 0 32 32;" xml:space="preserve">
<path d="M24.7,17c0,2.8,1.7,5.4,4.3,6.5c-0.5,1.6-1.3,3.1-2.2,4.6c-1.3,1.9-2.7,3.9-4.9,3.9c-2.1,0-2.8-1.3-5.3-1.3
	s-3.2,1.2-5.2,1.3c-2.1,0.1-3.7-2.1-5.1-4c-2.7-4-4.8-11.2-2-16.1c1.3-2.4,3.9-3.9,6.6-4c2.1,0,4,1.4,5.3,1.4s3.6-1.7,6.1-1.5
	c2.3,0.1,4.5,1.3,5.9,3.2C26.1,12.2,24.8,14.5,24.7,17 M20.7,5.1c1.2-1.4,1.8-3.3,1.7-5.1c-1.8,0.2-3.5,1-4.7,2.4
	c-1.2,1.4-1.8,3.1-1.7,4.9C17.8,7.4,19.6,6.6,20.7,5.1"/>
</svg>
