<svg xmlns="http://www.w3.org/2000/svg" width="26.056" height="32" viewBox="0 0 26.056 32"><path d="M21.761,17a7.073,7.073,0,0,0,4.295,6.475,17.512,17.512,0,0,1-2.214,4.551c-1.334,1.949-2.718,3.892-4.9,3.932-2.143.039-2.832-1.271-5.281-1.271S10.447,31.918,8.419,32c-2.1.08-3.708-2.108-5.052-4.05C.618,23.975-1.482,16.721,1.338,11.825A7.834,7.834,0,0,1,7.96,7.814C10.026,7.775,11.977,9.2,13.241,9.2s3.633-1.72,6.126-1.467a7.475,7.475,0,0,1,5.853,3.174A7.237,7.237,0,0,0,21.761,17M17.734,5.109A7.048,7.048,0,0,0,19.4,0a7.173,7.173,0,0,0-4.714,2.425,6.7,6.7,0,0,0-1.7,4.95,5.935,5.935,0,0,0,4.747-2.266"/></svg>