<?xml version="1.0" encoding="utf-8"?>
<!-- Generator: Adobe Illustrator 22.0.1, SVG Export Plug-In . SVG Version: 6.00 Build 0)  -->
<svg version="1.1" id="Layer_1" xmlns="http://www.w3.org/2000/svg" xmlns:xlink="http://www.w3.org/1999/xlink" x="0px" y="0px"
	 viewBox="0 0 32 32" style="enable-background:new 0 0 32 32;" xml:space="preserve">
<path id="XMLID_107_" d="M16,0c1.6,0,2.7,1.1,2.7,2.7v20.5l8.8-8.8c1.1-1.1,2.7-1.1,3.7,0c0.5,0.5,0.8,1.3,0.8,1.9
	c0,0.8-0.3,1.3-0.8,1.9L18.1,31.2c-0.5,0.5-1.1,0.8-1.9,0.8h-0.5c-0.8,0-1.3-0.3-1.9-0.8L0.8,17.9c-1.1-1.1-1.1-2.7,0-3.7
	s2.7-1.1,3.7,0l8.8,8.8V2.7C13.3,1.1,14.4,0,16,0z"/>
</svg>
