<?xml version="1.0" encoding="utf-8"?>
<!-- Generator: Adobe Illustrator 22.0.1, SVG Export Plug-In . SVG Version: 6.00 Build 0)  -->
<svg version="1.1" id="Layer_1" xmlns="http://www.w3.org/2000/svg" xmlns:xlink="http://www.w3.org/1999/xlink" x="0px" y="0px"
	 viewBox="0 0 32 32" style="enable-background:new 0 0 32 32;" xml:space="preserve">
<path id="XMLID_107_" d="M32,16c0,1.6-1.1,2.7-2.7,2.7H8.8l8.8,8.8c1.1,1.1,1.1,2.7,0,3.7c-0.5,0.5-1.3,0.8-1.9,0.8
	c-0.8,0-1.3-0.3-1.9-0.8L0.8,18.1C0.3,17.6,0,17.1,0,16.3v-0.5c0-0.8,0.3-1.3,0.8-1.9L14.1,0.8c1.1-1.1,2.7-1.1,3.7,0s1.1,2.7,0,3.7
	l-9.1,8.8h20.5C30.9,13.3,32,14.4,32,16z"/>
</svg>
