<?xml version="1.0" encoding="utf-8"?>
<!-- Generator: Adobe Illustrator 22.0.1, SVG Export Plug-In . SVG Version: 6.00 Build 0)  -->
<svg version="1.1" id="Layer_1" xmlns="http://www.w3.org/2000/svg" xmlns:xlink="http://www.w3.org/1999/xlink" x="0px" y="0px"
	 viewBox="0 0 32 32" style="enable-background:new 0 0 32 32;" xml:space="preserve">
<path id="XMLID_107_" d="M16,32c-1.6,0-2.7-1.1-2.7-2.7V8.8l-8.8,8.8c-1.1,1.1-2.7,1.1-3.7,0C0.3,17.1,0,16.3,0,15.7
	c0-0.8,0.3-1.3,0.8-1.9L13.9,0.8C14.4,0.3,14.9,0,15.7,0h0.5c0.8,0,1.3,0.3,1.9,0.8l13.1,13.3c1.1,1.1,1.1,2.7,0,3.7
	c-1.1,1.1-2.7,1.1-3.7,0l-8.8-9.1v20.5C18.7,30.9,17.6,32,16,32z"/>
</svg>
