<?xml version="1.0" encoding="utf-8"?>
<!-- Generator: Adobe Illustrator 22.0.1, SVG Export Plug-In . SVG Version: 6.00 Build 0)  -->
<svg version="1.1" id="Layer_1" xmlns="http://www.w3.org/2000/svg" xmlns:xlink="http://www.w3.org/1999/xlink" x="0px" y="0px"
	 viewBox="0 0 32 32" style="enable-background:new 0 0 32 32;" xml:space="preserve">
<path id="XMLID_107_" d="M0,16c0-1.6,1.1-2.7,2.7-2.7h20.5l-8.8-8.8c-1.1-1.1-1.1-2.7,0-3.7C14.9,0.3,15.7,0,16.3,0
	c0.8,0,1.3,0.3,1.9,0.8l13.1,13.1c0.5,0.5,0.8,1.1,0.8,1.9v0.5c0,0.8-0.3,1.3-0.8,1.9L17.9,31.2c-1.1,1.1-2.7,1.1-3.7,0
	s-1.1-2.7,0-3.7l8.8-8.8H2.7C1.1,18.7,0,17.6,0,16z"/>
</svg>
