<?xml version="1.0" encoding="utf-8"?>
<!-- Generator: Adobe Illustrator 19.0.0, SVG Export Plug-In . SVG Version: 6.00 Build 0)  -->
<svg version="1.0" id="Layer_1" xmlns="http://www.w3.org/2000/svg" xmlns:xlink="http://www.w3.org/1999/xlink" x="0px" y="0px"
	 viewBox="0 0 32 32" style="enable-background:new 0 0 32 32;" xml:space="preserve">
<style type="text/css">
	.st0{fill:#010202;}
</style>
<path id="XMLID_1076_" class="st0" d="M30.1,25c0-4.8-1.2-5.9-2.6-6.8C27,17.9,27,17.8,27,17v-0.3c0-4.8-0.3-13.5-9-14.6
	c0,0,0-0.1,0-0.1c0-1.1-0.9-2-2-2s-2,0.9-2,2c0,0,0,0.1,0,0.1C5.3,3.3,5,12,5,16.8V17c0,0.8,0,0.9-0.6,1.2c-1.4,0.8-2.5,2-2.5,6.7
	c0,0.2,0.1,0.6,0.5,1.1c1.1,1.1,4,1.7,8.6,1.9c0.4,2.3,2.5,4,4.9,4c2.4,0,4.5-1.7,4.9-4.1c4.7-0.2,7.7-0.8,8.7-1.9
	C30,25.6,30.1,25.1,30.1,25z M18.8,28c-0.4,1.2-1.5,2-2.8,2c-1.3,0-2.4-0.8-2.8-2c0.3,0,0.5,0,0.8,0l4,0c0,0,0,0,0,0
	C18.3,28,18.5,28,18.8,28z M19.6,26c-0.1,0-0.3,0-0.4,0c-0.4,0-0.8,0-1.2,0h0l-4,0c-0.4,0-0.8,0-1.2,0c-0.1,0-0.2,0-0.3,0
	c-6.4-0.1-8.1-1-8.5-1.3c0-3.8,0.8-4.3,1.5-4.8C6.2,19.6,7,19,7,17v-0.3C7,10,8,4,16,4c8,0,9,6,9,12.8V17c0,2,0.8,2.5,1.5,2.9
	c0.8,0.5,1.4,1,1.5,4.8C27.6,25,26,25.9,19.6,26z"/>
</svg>
