<?xml version="1.0" encoding="utf-8"?>
<!-- Generator: Adobe Illustrator 19.0.0, SVG Export Plug-In . SVG Version: 6.00 Build 0)  -->
<svg version="1.0" id="Layer_1" xmlns="http://www.w3.org/2000/svg" xmlns:xlink="http://www.w3.org/1999/xlink" x="0px" y="0px"
	 viewBox="0 0 32 32" style="enable-background:new 0 0 32 32;" xml:space="preserve">
<style type="text/css">
	.st0{fill:#010202;}
</style>
<path id="XMLID_1072_" class="st0" d="M15.4,32c-0.1,0-0.2,0-0.3-0.1c-0.4-0.2-10.7-3.7-12.3-4.5C0.1,26.2,0,24.8,0,24.3v-2.2
	c0-0.6,0.4-1,1-1s1,0.4,1,1v2.2c0,0,0,0,0,0.1c0,0.2,0.4,0.7,1.7,1.3c1.2,0.6,8.4,3.1,11.6,4.2L30,22v-1c0-0.6,0.4-1,1-1s1,0.4,1,1
	v1.6c0,0.4-0.2,0.7-0.5,0.9l-15.6,8.4C15.7,32,15.5,32,15.4,32z M15.8,25.9l15.6-8.4c0.3-0.2,0.5-0.5,0.5-0.9V15c0-0.6-0.4-1-1-1
	s-1,0.4-1,1v1l-14.7,7.9c-3.2-1.1-10.5-3.7-11.6-4.2C2.4,19.1,2,18.5,2,18.4c0,0,0,0,0-0.1v-2.2c0-0.6-0.4-1-1-1s-1,0.4-1,1v2.2
	c0,0.5,0.1,2,2.8,3.2c1.6,0.8,11.8,4.3,12.3,4.5c0.1,0,0.2,0.1,0.3,0.1C15.5,26,15.7,26,15.8,25.9z M15.8,19.9l15.6-8.4
	c0.3-0.2,0.5-0.5,0.5-0.9V9c0-0.6-0.4-1-1-1s-1,0.4-1,1v1l-14.7,7.9c-3.2-1.1-10.5-3.7-11.6-4.2C2.4,13.1,2,12.5,2,12.4
	c0,0,0,0,0-0.1v-2.2c0-0.2,0-0.4,0-0.6l13,4.5c0.3,0.1,0.5,0.1,0.8-0.1l15.6-8c0.4-0.2,0.6-0.6,0.5-1c0-0.4-0.3-0.8-0.7-0.9L16.6,0
	C16.4,0,16.2,0,16,0.1L2,6.3c-0.7,0.3-2,1.4-2,3.7v2.2c0,0.5,0.1,2,2.8,3.2c1.6,0.8,11.8,4.3,12.3,4.5c0.1,0,0.2,0.1,0.3,0.1
	C15.5,20,15.7,20,15.8,19.9z M16.5,2.1l11.8,3.2l-13,6.6L3.5,7.8L16.5,2.1z"/>
</svg>
