<?xml version="1.0" encoding="utf-8"?>
<!-- Generator: Adobe Illustrator 19.0.0, SVG Export Plug-In . SVG Version: 6.00 Build 0)  -->
<svg version="1.1" id="Layer_1" xmlns="http://www.w3.org/2000/svg" xmlns:xlink="http://www.w3.org/1999/xlink" x="0px" y="0px"
	 viewBox="0 0 32 32" style="enable-background:new 0 0 32 32;" xml:space="preserve">
<path id="XMLID_1038_" d="M26.2,32c-1.8,0-3.3-2.2-5.6-5.8c-1.4-2.1-3.5-5.4-4.6-5.4c-0.9,0-3,3.2-4.3,5.2c-2.1,3.2-4,6-5.8,6
	C4.6,32,4,30.9,4,30.2V5c0-3.1,1.7-5,4.6-5h14.8C26.3,0,28,1.8,28,5v25.2C28,31,27.3,32,26.2,32z M5.9,30.1
	C5.9,30.1,5.9,30.2,5.9,30.1c0.9,0,3-3.2,4.3-5.2c2.1-3.2,4-6,5.8-6c2.1,0,3.9,2.9,6.1,6.2c1.2,1.9,3.2,4.9,4,4.9l0-25.1
	c0-2.1-0.9-3-2.7-3H8.6C6.7,2,6,2.9,6,5L5.9,30.1C6,30.1,5.9,30.1,5.9,30.1z"/>
</svg>
