<?xml version="1.0" encoding="utf-8"?>
<!-- Generator: Adobe Illustrator 23.0.2, SVG Export Plug-In . SVG Version: 6.00 Build 0)  -->
<svg version="1.1" id="Layer_1" xmlns="http://www.w3.org/2000/svg" xmlns:xlink="http://www.w3.org/1999/xlink" x="0px" y="0px"
	 viewBox="0 0 32 32" style="enable-background:new 0 0 32 32;" xml:space="preserve">
<path d="M28,4h-3V1c0-0.6-0.4-1-1-1H6C4.3,0,3,1.3,3,3v25c0,2.2,1.8,4,4,4h21c0.6,0,1-0.4,1-1V5C29,4.4,28.6,4,28,4z M6,2h17v2H6
	C5.4,4,5,3.6,5,3S5.4,2,6,2z M27,30H7c-1.1,0-2-0.9-2-2V5.8C5.3,5.9,5.7,6,6,6h21V30z M20.7,11.3H8.6c-0.5,0-0.9-0.4-0.9-0.9
	S8,9.5,8.6,9.5h12.1c0.5,0,0.9,0.5,0.9,1C21.6,10.9,21.2,11.3,20.7,11.3z M24.4,15.1c0-0.5-0.4-0.9-0.9-0.9c0,0,0,0,0,0H8.6
	c-0.5,0-0.9,0.5-0.9,1c0,0.5,0.4,0.9,0.9,0.9h14.9C24,16,24.4,15.6,24.4,15.1C24.4,15.1,24.4,15.1,24.4,15.1L24.4,15.1z M24.4,24.6
	c0-0.5-0.4-0.9-0.9-0.9c0,0,0,0,0,0H8.6c-0.5,0-0.9,0.5-0.9,1c0,0.5,0.4,0.9,0.9,0.9h14.9C24,25.5,24.4,25.1,24.4,24.6
	C24.4,24.6,24.4,24.6,24.4,24.6L24.4,24.6z M17.9,19.8c0-0.5-0.4-0.9-0.9-0.9c0,0,0,0,0,0H8.6c-0.5,0-0.9,0.5-0.9,1
	c0,0.5,0.4,0.9,0.9,0.9h8.4C17.5,20.8,17.9,20.4,17.9,19.8C17.9,19.8,17.9,19.8,17.9,19.8L17.9,19.8z"/>
</svg>
