<?xml version="1.0" encoding="utf-8"?>
<!-- Generator: Adobe Illustrator 19.0.0, SVG Export Plug-In . SVG Version: 6.00 Build 0)  -->
<svg version="1.0" id="Layer_1" xmlns="http://www.w3.org/2000/svg" xmlns:xlink="http://www.w3.org/1999/xlink" x="0px" y="0px"
	 viewBox="0 0 32 32" style="enable-background:new 0 0 32 32;" xml:space="preserve">
<style type="text/css">
	.st0{fill:#010202;}
</style>
<path id="XMLID_1326_" class="st0" d="M26.7,6h-3.5c0-2-1.8-4-4-4h-7c-2.2,0-4,2-4,4H4.7C2,6,0,8.2,0,11v14c0,2.8,2,5,4.7,5h22
	c2.8,0,5.3-2.2,5.3-5V11C32,8.2,29.5,6,26.7,6z M12.2,4h7c1.1,0,2,1,2,2h-11C10.2,5,11.1,4,12.2,4z M4.7,8H6h2.2h2h11h2H24h2.7
	c1.7,0,3.3,1.3,3.3,3v0.3l-11,3V14c0-0.6-0.4-1-1-1h-4c-0.6,0-1,0.4-1,1v0.3l-11-3V11C2,9.3,3.1,8,4.7,8z M17,15v2h-2v-2H17z
	 M26.7,28h-22C3.1,28,2,26.7,2,25V13.4l11,3V18c0,0.6,0.4,1,1,1h4c0.6,0,1-0.4,1-1v-1.6l11-3V25C30,26.7,28.4,28,26.7,28z"/>
</svg>
