<?xml version="1.0" encoding="utf-8"?>
<!-- Generator: Adobe Illustrator 23.0.1, SVG Export Plug-In . SVG Version: 6.00 Build 0)  -->
<svg version="1.1" id="Layer_1" xmlns="http://www.w3.org/2000/svg" xmlns:xlink="http://www.w3.org/1999/xlink" x="0px" y="0px"
	 viewBox="0 0 32 32" style="enable-background:new 0 0 32 32;" xml:space="preserve">
<path d="M20.6,15.2c0,1-0.7,1.8-1.6,1.8c-0.9,0-1.6-0.8-1.6-1.8c0-1,0.7-1.8,1.6-1.8C19.9,13.4,20.6,14.2,20.6,15.2z M13.1,13.4
	c-0.9,0-1.6,0.8-1.6,1.8s0.7,1.8,1.6,1.8c0.9,0,1.6-0.8,1.6-1.8C14.7,14.2,14,13.4,13.1,13.4z M30,3.3V32l-3.4-3l-1.9-1.8l-2.1-1.9
	l0.8,3H5.3c-1.8,0-3.3-1.5-3.3-3.3V3.3C2,1.5,3.5,0,5.3,0h21.4C28.5,0,30,1.5,30,3.3z M25.4,18.5c0-5.1-2.3-9.3-2.3-9.3
	c-2.3-1.7-4.5-1.7-4.5-1.7l-0.2,0.3c2.7,0.8,4,2,4,2c-1.7-0.9-3.3-1.4-4.8-1.5c-1.1-0.1-2.3-0.1-3.2,0c-0.1,0-0.2,0-0.3,0
	c-0.6,0-1.9,0.3-3.6,1C9.9,9.6,9.5,9.7,9.5,9.7s1.3-1.3,4.2-2.1l-0.2-0.2c0,0-2.2,0-4.5,1.7c0,0-2.3,4.2-2.3,9.3
	c0,0,1.3,2.3,4.9,2.4c0,0,0.6-0.7,1.1-1.3c-2-0.6-2.8-1.9-2.8-1.9s0.2,0.1,0.5,0.3c0,0,0,0,0.1,0c0,0,0.1,0,0.1,0.1
	c0.4,0.2,0.8,0.4,1.2,0.5c0.7,0.3,1.4,0.5,2.4,0.7c1.2,0.2,2.6,0.3,4.1,0c0.8-0.1,1.5-0.3,2.3-0.7c0.6-0.2,1.2-0.5,1.8-0.9
	c0,0-0.8,1.3-2.9,1.9c0.5,0.6,1.1,1.3,1.1,1.3C24.1,20.8,25.4,18.5,25.4,18.5z"/>
</svg>
