<?xml version="1.0" encoding="utf-8"?>
<!-- Generator: Adobe Illustrator 23.0.2, SVG Export Plug-In . SVG Version: 6.00 Build 0)  -->
<svg version="1.1" id="Layer_1" xmlns="http://www.w3.org/2000/svg" xmlns:xlink="http://www.w3.org/1999/xlink" x="0px" y="0px"
	 viewBox="0 0 32 32" style="enable-background:new 0 0 32 32;" xml:space="preserve">
<path d="M20.6,15.2c-0.1,0.9-0.9,1.6-1.8,1.5c-0.9-0.1-1.6-0.9-1.5-1.8c0.1-0.8,0.8-1.5,1.6-1.5C19.9,13.5,20.6,14.2,20.6,15.2
	C20.6,15.2,20.6,15.2,20.6,15.2z M13.1,13.4c-1-0.1-1.8,0.6-1.9,1.6c-0.1,1,0.6,1.8,1.6,1.9s1.8-0.6,1.9-1.6c0,0,0-0.1,0-0.1
	C14.8,14.3,14.1,13.5,13.1,13.4C13.1,13.4,13.1,13.4,13.1,13.4L13.1,13.4z M30,3.3V32l-3.4-3l-1.9-1.8l-2-1.9l0.8,3H5.3
	c-1.8,0-3.3-1.5-3.3-3.3c0,0,0,0,0,0V3.3C2,1.5,3.5,0,5.3,0h21.4C28.5,0,30,1.5,30,3.3L30,3.3z M25.4,18.5c-0.1-3.2-0.8-6.4-2.3-9.3
	c-1.3-1-2.9-1.6-4.5-1.7l-0.2,0.3c1.5,0.4,2.8,1.1,4,2c-1.5-0.8-3.1-1.3-4.8-1.5c-1.1-0.1-2.2-0.1-3.2,0c-0.1,0-0.2,0-0.3,0
	c-1.3,0.1-2.5,0.5-3.6,1C9.9,9.6,9.5,9.7,9.5,9.7c1.2-1,2.7-1.7,4.2-2.1l-0.2-0.2c-1.6,0.1-3.2,0.7-4.5,1.7
	c-1.5,2.9-2.3,6.1-2.3,9.3c1.1,1.6,3,2.5,4.9,2.4c0,0,0.6-0.7,1.1-1.3c-1.1-0.3-2.1-1-2.8-1.9c0.1,0.1,0.3,0.2,0.5,0.3
	c0,0,0,0,0.1,0.1c0,0,0.1,0,0.1,0.1c0.4,0.2,0.8,0.4,1.2,0.5c0.8,0.3,1.5,0.5,2.4,0.7c1.4,0.3,2.8,0.3,4.1,0
	c0.8-0.1,1.6-0.4,2.3-0.7c0.6-0.2,1.3-0.6,1.8-0.9c-0.7,1-1.7,1.6-2.9,1.9c0.5,0.6,1.1,1.3,1.1,1.3C22.5,20.9,24.3,20,25.4,18.5z"/>
</svg>
