<?xml version="1.0" encoding="utf-8"?>
<!-- Generator: Adobe Illustrator 19.0.0, SVG Export Plug-In . SVG Version: 6.00 Build 0)  -->
<svg version="1.1" id="Layer_1" xmlns="http://www.w3.org/2000/svg" xmlns:xlink="http://www.w3.org/1999/xlink" x="0px" y="0px"
	 viewBox="0 0 32 32" style="enable-background:new 0 0 32 32;" xml:space="preserve">
<path id="XMLID_1346_" d="M26.7,4H26h-2.8h-2h-11h-2H8H4.7C2,4,0,6.2,0,9v14c0,2.8,2,5,4.7,5h22c2.8,0,5.3-2.2,5.3-5V9
	C32,6.2,29.5,4,26.7,4z M4.7,6H6h2.2h2h11h2H24h2.7c1.1,0,2.1,0.6,2.7,1.4L16.3,17h-0.7L2.4,7.3C2.9,6.5,3.7,6,4.7,6z M26.7,26h-22
	C3.1,26,2,24.7,2,23V9.3l13.1,9.6c0.1,0.1,0.3,0.1,0.4,0.1h1.1c0.1,0,0.3,0,0.4-0.1L30,9.3V23C30,24.7,28.4,26,26.7,26z"/>
</svg>
