<?xml version="1.0" encoding="utf-8"?>
<!-- Generator: Adobe Illustrator 23.0.2, SVG Export Plug-In . SVG Version: 6.00 Build 0)  -->
<svg version="1.1" id="Layer_1" xmlns="http://www.w3.org/2000/svg" xmlns:xlink="http://www.w3.org/1999/xlink" x="0px" y="0px"
	 viewBox="0 0 32 32" style="enable-background:new 0 0 32 32;" xml:space="preserve">
<path d="M11.8,6.2c0,0.8,0,4.4,0,4.4H8.5V16h3.2v16h6.6V16h4.5c0,0,0.4-2.6,0.6-5.4c-0.6,0-5,0-5,0s0-3.1,0-3.7
	c0-0.6,0.7-1.3,1.4-1.3c0.7,0,2.2,0,3.6,0c0-0.7,0-3.3,0-5.6c-1.9,0-4,0-4.9,0C11.6,0,11.8,5.4,11.8,6.2z"/>
</svg>
