<?xml version="1.0" encoding="utf-8"?>
<!-- Generator: Adobe Illustrator 19.0.0, SVG Export Plug-In . SVG Version: 6.00 Build 0)  -->
<svg version="1.1" id="Layer_1" xmlns="http://www.w3.org/2000/svg" xmlns:xlink="http://www.w3.org/1999/xlink" x="0px" y="0px"
	 viewBox="0 0 32 32" style="enable-background:new 0 0 32 32;" xml:space="preserve">
<path id="XMLID_4823_" d="M9,10c0-0.6,0.4-1,1-1h8.4c0.4,0.8,0.9,1.5,1.6,2H10C9.4,11,9,10.6,9,10z M18,21h-8c-0.6,0-1,0.4-1,1
	s0.4,1,1,1h8c0.6,0,1-0.4,1-1S18.6,21,18,21z M22,15H10c-0.6,0-1,0.4-1,1s0.4,1,1,1h12c0.6,0,1-0.4,1-1S22.6,15,22,15z M28,7v2v3.1
	V27c0,2.8-2.2,5-5,5H9c-2.8,0-5-2.2-5-5V5c0-2.8,2.2-5,5-5h6h4h2c0.3,0,0.5,0.1,0.7,0.3l6,6C27.9,6.5,28,6.7,28,7z M21,4
	c0,1.7,1.3,3,3,3h1.6L21,2.4V4z M26,9h-2c-2.8,0-5-2.2-5-5V2h-4H9C7.3,2,6,3.3,6,5v22c0,1.7,1.3,3,3,3h14c1.7,0,3-1.3,3-3V12.1V9z"
	/>
</svg>
