<?xml version="1.0" encoding="utf-8"?>
<!-- Generator: Adobe Illustrator 19.0.0, SVG Export Plug-In . SVG Version: 6.00 Build 0)  -->
<svg version="1.1" id="Layer_1" xmlns="http://www.w3.org/2000/svg" xmlns:xlink="http://www.w3.org/1999/xlink" x="0px" y="0px"
	 viewBox="0 0 32 32" style="enable-background:new 0 0 32 32;" xml:space="preserve">
<path id="XMLID_1205_" d="M27,6.5H16v-1c0-1.7-1.3-3-3-3H7c-1.7,0-3,1.3-3,3V6v0.6v0.1c-2.3,0.5-4,2.5-4,4.9v13C0,27,1.7,29,4,29.5
	h24c2.3-0.5,4-2.5,4-4.9v-13C32,8.8,29.8,6.5,27,6.5z M6,5.5c0-0.6,0.4-1,1-1h6c0.6,0,1,0.4,1,1v1H6V5.5z M30,24.6c0,1.7-1.3,3-3,3
	H5c-1.7,0-3-1.3-3-3v-13c0-1.7,1.3-3,3-3h22c1.7,0,3,1.3,3,3V24.6z"/>
</svg>
