<?xml version="1.0" encoding="utf-8"?>
<!-- Generator: Adobe Illustrator 19.0.0, SVG Export Plug-In . SVG Version: 6.00 Build 0)  -->
<svg version="1.0" id="Layer_1" xmlns="http://www.w3.org/2000/svg" xmlns:xlink="http://www.w3.org/1999/xlink" x="0px" y="0px"
	 viewBox="0 0 32 32" style="enable-background:new 0 0 32 32;" xml:space="preserve">
<style type="text/css">
	.st0{fill:#010202;}
</style>
<path id="XMLID_353_" class="st0" d="M31.7,1.4C31.4,0.7,30.8,0,29.5,0H2.4C1,0,0.4,0.8,0.2,1.5C0,2.1-0.2,3.1,0.7,4L11,14.3v15.3
	c0,1.1,0.5,1.7,1.1,2c0.2,0.2,0.5,0.4,1.1,0.4c0.7,0,1.4-0.4,1.7-0.7l5.5-5.5c0.4-0.4,0.6-1,0.6-1.7v-9.8L31.2,4
	C32,3.1,32.2,2.3,31.7,1.4z M29.8,2.5L19.3,13.2c-0.2,0.2-0.3,0.4-0.3,0.7v10.2c0,0.2,0,0.3,0,0.3l-5.5,5.5c0,0-0.1,0.1-0.1,0.1
	c-0.1,0-0.2-0.1-0.2-0.1c-0.1,0-0.1,0-0.1,0c0,0,0-0.1,0-0.2V13.9c0-0.3-0.1-0.5-0.3-0.7L2,2.5c0,0,0-0.1,0.1-0.4c0,0,0,0,0,0
	c0-0.1,0-0.1,0-0.1c0,0,0.1,0,0.2,0h27.1c0.2,0,0.2,0,0.2,0c0,0,0,0,0.1,0.1c0,0.1,0.1,0.2,0.1,0.2C29.9,2.4,29.8,2.5,29.8,2.5z"/>
</svg>
