<?xml version="1.0" encoding="utf-8"?>
<!-- Generator: Adobe Illustrator 19.0.0, SVG Export Plug-In . SVG Version: 6.00 Build 0)  -->
<svg version="1.1" id="Layer_1" xmlns="http://www.w3.org/2000/svg" xmlns:xlink="http://www.w3.org/1999/xlink" x="0px" y="0px"
	 viewBox="-623 -1 32 32" style="enable-background:new -623 -1 32 32;" xml:space="preserve">
<path id="XMLID_1505_" d="M-592,21h-0.4h-2.1h-9.1h-0.1c-0.3,0.1-0.5,0.2-0.7,0.5c-0.1,0.2-0.2,0.3-0.4,0.4c-0.1,0-0.2,0-0.2,0h-4
	c-0.1,0-0.2,0-0.2,0c-0.2-0.1-0.3-0.2-0.4-0.4c-0.2-0.3-0.4-0.4-0.7-0.5h-0.1h-9.6h-2c-0.6,0-1,0.5-1,1c0,2.7,2.1,5,4.8,5h22.5
	c2.6,0,4.8-2.2,4.8-5C-591,21.4-591.5,21-592,21z M-595.8,24.9h-22.5c-1.2,0-2.2-0.8-2.6-1.8h9.7c0.3,0.3,0.7,0.6,1.1,0.7
	c0.4,0.2,0.8,0.3,1.2,0.3h3.8c0.4,0,0.8-0.1,1.2-0.3c0.4-0.2,0.8-0.4,1.1-0.7h9.7C-593.6,24.1-594.6,24.9-595.8,24.9z M-621,19.1V9
	c0-3.3,2.7-6,6-6h16c3.3,0,6,2.7,6,6v10c0,0.6-0.4,1-1,1s-1-0.4-1-1V9c0-2.2-1.8-4-4-4h-16c-2.2,0-4,1.8-4,4v10c0,0.6-0.4,1-1,1
	S-621,19.6-621,19.1z"/>
</svg>
