<?xml version="1.0" encoding="utf-8"?>
<!-- Generator: Adobe Illustrator 23.0.2, SVG Export Plug-In . SVG Version: 6.00 Build 0)  -->
<svg version="1.1" id="Layer_1" xmlns="http://www.w3.org/2000/svg" xmlns:xlink="http://www.w3.org/1999/xlink" x="0px" y="0px"
	 viewBox="0 0 32 32" style="enable-background:new 0 0 32 32;" xml:space="preserve">
<path d="M32,19.5v11.8h-6.9v-11c0-2.8-1-4.7-3.5-4.7c-1.9,0-3,1.3-3.5,2.5c-0.2,0.4-0.2,1.1-0.2,1.7v11.5h-6.9c0,0,0.1-18.7,0-20.6
	h6.9v2.9c0,0,0,0,0,0.1h0v-0.1c0.9-1.4,2.5-3.4,6.2-3.4C28.6,10.2,32,13.1,32,19.5z M3.9,0.7C1.5,0.7,0,2.3,0,4.3
	c0,2,1.5,3.6,3.8,3.6h0c2.4,0,3.9-1.6,3.9-3.6C7.7,2.3,6.2,0.7,3.9,0.7z M0.4,31.3h6.9V10.7H0.4V31.3z"/>
</svg>
