<?xml version="1.0" encoding="utf-8"?>
<!-- Generator: Adobe Illustrator 22.0.1, SVG Export Plug-In . SVG Version: 6.00 Build 0)  -->
<svg version="1.1" id="Layer_1" xmlns="http://www.w3.org/2000/svg" xmlns:xlink="http://www.w3.org/1999/xlink" x="0px" y="0px"
	 viewBox="0 0 32 32" style="enable-background:new 0 0 32 32;" xml:space="preserve">
<path id="XMLID_877_" d="M30.5,8.7H1.5C0.6,8.7,0,8.1,0,7.3s0.6-1.5,1.5-1.5h29.1c0.9,0,1.5,0.6,1.5,1.5S31.4,8.7,30.5,8.7z M32,16
	c0-0.9-0.6-1.5-1.5-1.5H1.5C0.6,14.5,0,15.1,0,16c0,0.9,0.6,1.5,1.5,1.5h29.1C31.4,17.5,32,16.9,32,16z M32,24.7
	c0-0.9-0.6-1.5-1.5-1.5H1.5c-0.9,0-1.5,0.6-1.5,1.5c0,0.9,0.6,1.5,1.5,1.5h29.1C31.4,26.2,32,25.6,32,24.7z"/>
</svg>
