<?xml version="1.0" encoding="utf-8"?>
<!-- Generator: Adobe Illustrator 23.0.1, SVG Export Plug-In . SVG Version: 6.00 Build 0)  -->
<svg version="1.1" id="Layer_1" xmlns="http://www.w3.org/2000/svg" xmlns:xlink="http://www.w3.org/1999/xlink" x="0px" y="0px"
	 viewBox="0 0 32 32" style="enable-background:new 0 0 32 32;" xml:space="preserve">
<path id="Subtraction_3" d="M16,32c-1,0-2.1-0.1-3.1-0.3c-1.6-0.3-3.1-0.8-4.5-1.6c-0.1-0.8-0.1-1.6,0.1-2.3
	c0.1-0.6,0.4-1.1,0.7-1.5c0.3-0.4,0.6-0.7,1-1c0.4-0.2,0.7-0.5,1.1-0.7c0.2-0.1,0.3-0.2,0.4-0.2c0.8-0.5,2.9-1.6,5.6-2.9
	c2.3-1.2,5.8-2.9,9.6-4.6c0.6-0.3,1.2-0.6,1.8-1c0.5-0.3,0.9-0.7,1.3-1.2c0.6-0.8,1.1-1.7,1.4-2.6c2,7.7-2,15.6-9.2,18.7
	c-1,0.4-2,0.7-3,0.9C18.2,31.9,17.1,32,16,32z M4.7,27.3L4.7,27.3c-0.2-0.2-0.4-0.4-0.6-0.7c-0.3-1.9,0.4-3.9,1.8-5.2
	c1-1,2.1-1.8,3.3-2.4c0.1-0.1,0.2-0.1,0.2-0.1c0.5-0.3,2.2-1.2,4.8-2.5c2.1-1.1,5.4-2.7,9.2-4.3c1.6-0.6,3.1-1.7,4.2-3
	c0.3-0.4,0.6-0.9,0.8-1.5c0.2-0.4,0.2-0.8,0.3-1.3c0.3,0.3,0.5,0.7,0.7,1.1c-0.1,1.2-0.6,2.4-1.4,3.3c-0.6,0.7-1.3,1.2-2.1,1.6
	l-0.2,0.1c-0.8,0.5-4.6,2.3-8.4,4.1c-3.1,1.5-6,2.9-6.9,3.4c-1.3,0.7-2.4,1.5-3.4,2.5c-0.6,0.6-1.1,1.4-1.5,2.1
	C5,25.4,4.7,26.4,4.7,27.3L4.7,27.3z M1.2,22.1L1.2,22.1c-0.4-0.9-0.7-1.8-0.9-2.8c-0.5-2.2-0.5-4.4,0-6.6
	C2.1,4.2,10.5-1.4,19.1,0.3c2.4,0.5,4.6,1.5,6.5,2.9c-0.2,1-0.7,2-1.4,2.8c-0.6,0.6-1.2,1.1-1.9,1.5l0,0l-0.2,0.1
	c-0.8,0.5-4.6,2.3-8.4,4.1c-3.1,1.5-6,2.9-6.9,3.4c-0.5,0.3-1,0.6-1.4,0.9c-0.6,0.4-1.2,0.9-1.7,1.4c-0.6,0.6-1.1,1.3-1.5,2
	C1.7,20.2,1.4,21.2,1.2,22.1L1.2,22.1z M28.5,6.1c-0.6-0.8-1.3-1.5-2-2.1C27.3,4.6,27.9,5.4,28.5,6.1L28.5,6.1z"/>
</svg>
