<?xml version="1.0" encoding="utf-8"?>
<!-- Generator: Adobe Illustrator 19.0.0, SVG Export Plug-In . SVG Version: 6.00 Build 0)  -->
<svg version="1.1" id="Layer_1" xmlns="http://www.w3.org/2000/svg" xmlns:xlink="http://www.w3.org/1999/xlink" x="0px" y="0px"
	 viewBox="0 0 32 32" style="enable-background:new 0 0 32 32;" xml:space="preserve">
<path id="XMLID_740_" d="M22,0H10C7.2,0,5,2.2,5,5v22c0,2.8,2.2,5,5,5h12c2.8,0,5-2.2,5-5V5C27,2.2,24.8,0,22,0z M25,27
	c0,1.7-1.3,3-3,3H10c-1.7,0-3-1.3-3-3V5c0-1.7,1.3-3,3-3h12c1.7,0,3,1.3,3,3V27z M18,26c0,1.1-0.9,2-2,2s-2-0.9-2-2c0-1.1,0.9-2,2-2
	S18,24.9,18,26z M20,6c0,0.6-0.4,1-1,1h-6c-0.6,0-1-0.4-1-1s0.4-1,1-1h6C19.6,5,20,5.4,20,6z"/>
</svg>
