<?xml version="1.0" encoding="utf-8"?>
<!-- Generator: Adobe Illustrator 23.0.2, SVG Export Plug-In . SVG Version: 6.00 Build 0)  -->
<svg version="1.1" id="Layer_1" xmlns="http://www.w3.org/2000/svg" xmlns:xlink="http://www.w3.org/1999/xlink" x="0px" y="0px"
	 viewBox="0 0 32 32" style="enable-background:new 0 0 32 32;" xml:space="preserve">
<path d="M15.3,31.3c0-0.4,0.3-0.7,0.7-0.7s0.7,0.3,0.7,0.7S16.4,32,16,32c0,0,0,0,0,0C15.6,32,15.3,31.7,15.3,31.3
	C15.3,31.3,15.3,31.3,15.3,31.3z M15.3,28.3c0-0.4,0.3-0.7,0.7-0.7s0.7,0.3,0.7,0.7s-0.3,0.7-0.7,0.7c0,0,0,0,0,0
	C15.6,29.1,15.3,28.7,15.3,28.3z M15.3,25.4c0-0.4,0.3-0.7,0.7-0.7c0.4,0,0.7,0.3,0.7,0.7c0,0.4-0.3,0.7-0.7,0.7c0,0,0,0,0,0
	C15.6,26.1,15.3,25.8,15.3,25.4z M11.6,17.8v-3.5c0-2.4,2-4.4,4.4-4.4s4.4,2,4.4,4.4v3.5c0,2.4-2,4.4-4.4,4.4S11.6,20.2,11.6,17.8z
	 M13.1,14.3v3.5c0,1.6,1.3,2.9,2.9,2.9c1.6,0,2.9-1.3,2.9-2.9v-3.5c0-1.6-1.3-2.9-2.9-2.9S13.1,12.7,13.1,14.3z M15.3,13.3
	c0-0.4,0.3-0.7,0.7-0.7c0.4,0,0.7,0.3,0.7,0.7c0,0.4-0.3,0.7-0.7,0.7c0,0,0,0,0,0C15.6,14,15.3,13.7,15.3,13.3L15.3,13.3z M15.3,6.6
	c0-0.4,0.3-0.7,0.7-0.7c0.4,0,0.7,0.3,0.7,0.7c0,0.4-0.3,0.7-0.7,0.7c0,0,0,0,0,0C15.6,7.4,15.3,7,15.3,6.6L15.3,6.6z M15.3,3.7
	c0-0.4,0.3-0.7,0.7-0.7s0.7,0.3,0.7,0.7c0,0.4-0.3,0.7-0.7,0.7c0,0,0,0,0,0C15.6,4.4,15.3,4.1,15.3,3.7L15.3,3.7z M15.3,0.7
	C15.3,0.3,15.6,0,16,0s0.7,0.3,0.7,0.7S16.4,1.5,16,1.5c0,0,0,0,0,0C15.6,1.5,15.3,1.1,15.3,0.7L15.3,0.7z"/>
</svg>
