<?xml version="1.0" encoding="utf-8"?>
<!-- Generator: Adobe Illustrator 19.0.0, SVG Export Plug-In . SVG Version: 6.00 Build 0)  -->
<svg version="1.1" id="Layer_1" xmlns="http://www.w3.org/2000/svg" xmlns:xlink="http://www.w3.org/1999/xlink" x="0px" y="0px"
	 viewBox="-281 404.9 32 32" style="enable-background:new -281 404.9 32 32;" xml:space="preserve">
<style type="text/css">
	.st0{fill:#1D1D1B;}
</style>
<path id="XMLID_1844_" class="st0" d="M-253,417.9c0,0.6-0.4,1-1,1h-6c-0.6,0-1-0.4-1-1s0.4-1,1-1h6
	C-253.5,416.9-253,417.3-253,417.9z M-253,413.9c0,0.6-0.4,1-1,1h-6c-0.6,0-1-0.4-1-1s0.4-1,1-1h6C-253.5,412.9-253,413.3-253,413.9
	z M-253,422.9c0,0.6-0.4,1-1,1h-18c-0.6,0-1-0.4-1-1s0.4-1,1-1h18C-253.4,421.9-253,422.3-253,422.9z M-253,426.9c0,0.6-0.4,1-1,1
	h-18c-0.6,0-1-0.4-1-1s0.4-1,1-1h18C-253.4,425.9-253,426.3-253,426.9z M-261,430.9c0,0.6-0.4,1-1,1h-10c-0.6,0-1-0.4-1-1s0.4-1,1-1
	h10C-261.4,429.9-261,430.3-261,430.9z M-264,408.9h-8c-0.6,0-1,0.4-1,1v8c0,0.6,0.4,1,1,1h8c0.6,0,1-0.4,1-1v-8
	C-263,409.3-263.4,408.9-264,408.9z M-265,416.9h-6v-6h6V416.9z M-253,404.9h-20c-1.3,0.3-2.3,1-3,2h-1c-2.3,0.5-4,2.5-4,4.9v20.3
	c0,0,0,0,0,0c0,0,0,0,0,0c0,1.3,0.3,2.5,0.8,3.3c0.5,0.9,1.4,1.4,2.2,1.4c0,0,0,0,0,0l0,0h25c2.3-0.5,4-2.5,4-4.9v-22.2
	C-249,407.4-250.7,405.4-253,404.9z M-279,432.1C-279,432.1-279,432.1-279,432.1C-279,432.1-279,432.1-279,432.1l0-20.3
	c0-1.4,0.9-2.5,2.1-2.9c0,0.3-0.1,0.6-0.1,0.9v22.3c0,0,0,0,0,0c0,0,0,0,0,0c0,1.9-0.7,2.7-1,2.7C-278.3,434.9-279,434-279,432.1z
	 M-251,432c0,1.7-1.3,3-3,3h-21.5c0.3-0.7,0.5-1.7,0.5-2.9c0,0,0,0,0,0c0,0,0,0,0,0v-22.3c0-1.7,1.3-3,3-3h18c1.7,0,3,1.3,3,3V432z"
	/>
</svg>
