<?xml version="1.0" encoding="utf-8"?>
<!-- Generator: Adobe Illustrator 23.0.2, SVG Export Plug-In . SVG Version: 6.00 Build 0)  -->
<svg version="1.1" id="Layer_1" xmlns="http://www.w3.org/2000/svg" xmlns:xlink="http://www.w3.org/1999/xlink" x="0px" y="0px"
	 viewBox="0 0 32 32" style="enable-background:new 0 0 32 32;" xml:space="preserve">
<path d="M16,32c-2.6,0-5.2-0.7-7.6-1.9c-0.4-3.7,1.6-4.8,3-5.5c0.2-0.1,0.3-0.2,0.4-0.2c1.7-1,8.4-4.5,15.2-7.5
	c2.1-0.8,3.8-2.6,4.4-4.8c1.4,5.5-0.2,11.3-4.2,15.3C24.3,30.3,20.2,32,16,32z M4.7,27.3L4.7,27.3c-0.2-0.2-0.4-0.4-0.6-0.7
	c-0.6-4.5,3.7-6.9,5.1-7.7c0.1-0.1,0.2-0.1,0.2-0.1c1-0.6,7-3.7,13.9-6.8c4.2-1.9,5.2-4.2,5.3-5.8c0.3,0.3,0.5,0.7,0.7,1.1
	c-0.3,2.1-1.6,4-3.5,4.9l-0.2,0.1c-0.8,0.5-4.7,2.3-8.4,4.1c-3.1,1.5-6,2.9-6.9,3.4c-1.3,0.7-2.4,1.5-3.4,2.5
	C5.6,23.6,4.8,25.4,4.7,27.3z M3.3,25.7c-4.8-6.4-4.2-15.3,1.4-21C10.3-1,19.3-1.6,25.6,3.3c-0.4,1.8-1.7,3.4-3.4,4.2l-0.2,0.1
	c-0.8,0.5-4.7,2.3-8.4,4.1c-3.1,1.5-6,2.9-6.9,3.3c-4.8,2.6-5.3,5.9-5.5,7C1.8,23.4,2.4,24.6,3.3,25.7L3.3,25.7z"/>
</svg>
