<?xml version="1.0" encoding="utf-8"?>
<!-- Generator: Adobe Illustrator 19.0.0, SVG Export Plug-In . SVG Version: 6.00 Build 0)  -->
<svg version="1.1" id="Layer_1" xmlns="http://www.w3.org/2000/svg" xmlns:xlink="http://www.w3.org/1999/xlink" x="0px" y="0px"
	 viewBox="0 0 32 32" style="enable-background:new 0 0 32 32;" xml:space="preserve">
<path id="XMLID_135_" d="M25.5,32c-0.3,0-0.6,0-0.9-0.2c-4.9-1.7-10.1-5.2-14.7-9.8c-4.6-4.6-8.1-9.8-9.8-14.7l0,0
	c-0.3-1-0.1-2,0.6-2.8l3.8-3.8c1-1,2.8-1,3.8,0l4.8,4.8c1,1,1,2.7,0,3.8L12,10.7c-0.3,0.3-0.4,0.8-0.1,1.2c1.2,1.5,2.5,3,3.9,4.3
	c1.4,1.4,2.9,2.7,4.3,3.9c0.4,0.3,0.9,0.3,1.2-0.1l1.3-1.3c1-1,2.8-1,3.8,0l4.8,4.8c1,1,1,2.7,0,3.8l-3.8,3.8
	C26.9,31.7,26.2,32,25.5,32z M2,6.7c1.6,4.6,4.9,9.5,9.3,13.9c4.4,4.4,9.3,7.7,13.9,9.3c0.3,0.1,0.5,0,0.7-0.2l3.8-3.8
	c0.3-0.3,0.3-0.7,0-1L25,20.1c-0.3-0.3-0.7-0.3-1,0l-1.3,1.3c-1,1-2.7,1.1-3.8,0.2c-1.6-1.2-3.1-2.6-4.5-4c-1.5-1.5-2.8-3-4-4.5
	c-0.9-1.2-0.8-2.8,0.2-3.8L11.8,8c0.3-0.3,0.3-0.7,0-1L7,2.2c-0.3-0.3-0.7-0.3-1,0L2.2,6C2,6.2,2,6.5,2,6.7L2,6.7z"/>
</svg>
