<?xml version="1.0" encoding="utf-8"?>
<!-- Generator: Adobe Illustrator 19.0.0, SVG Export Plug-In . SVG Version: 6.00 Build 0)  -->
<svg version="1.0" id="Layer_1" xmlns="http://www.w3.org/2000/svg" xmlns:xlink="http://www.w3.org/1999/xlink" x="0px" y="0px"
	 viewBox="0 0 32 32" style="enable-background:new 0 0 32 32;" xml:space="preserve">
<style type="text/css">
	.st0{fill:#010202;}
</style>
<path id="XMLID_886_" class="st0" d="M31.8,31.6C31.6,31.8,31.3,32,31,32H1c-0.3,0-0.6-0.2-0.8-0.4s-0.2-0.6-0.1-0.9l4-10
	C4.2,20.2,4.6,20,5,20h4c0.6,0,1,0.4,1,1s-0.4,1-1,1H5.7l-3.2,8h27l-3.2-8H23c-0.6,0-1-0.4-1-1s0.4-1,1-1h4c0.4,0,0.8,0.2,0.9,0.6
	l4,10C32.1,30.9,32,31.3,31.8,31.6z M12.6,9c0-1.9,1.5-3.4,3.4-3.4s3.4,1.5,3.4,3.4s-1.5,3.4-3.4,3.4S12.6,10.9,12.6,9z M14.6,9
	c0,0.8,0.6,1.4,1.4,1.4s1.4-0.6,1.4-1.4S16.8,7.6,16,7.6S14.6,8.2,14.6,9z M7,9c0-5,4-9,9-9s9,4,9,9c0,2.8-1.4,5.5-3.6,7.2l-4.6,9.2
	c-0.2,0.3-0.5,0.6-0.9,0.6s-0.7-0.2-0.9-0.6l-4.8-9.6C8.2,14.1,7,11.7,7,9z M9,9c0,2.1,0.9,4.1,2.6,5.4c0.1,0.1,0.2,0.2,0.3,0.3l4,8
	l3.8-7.7c0.1-0.1,0.2-0.3,0.3-0.4c1.9-1.3,3-3.5,3-5.7c0-3.9-3.1-7-7-7S9,5.1,9,9z"/>
</svg>
