<?xml version="1.0" encoding="utf-8"?>
<!-- Generator: Adobe Illustrator 23.0.1, SVG Export Plug-In . SVG Version: 6.00 Build 0)  -->
<svg version="1.1" id="Layer_1" xmlns="http://www.w3.org/2000/svg" xmlns:xlink="http://www.w3.org/1999/xlink" x="0px" y="0px"
	 viewBox="0 0 32 32" style="enable-background:new 0 0 32 32;" xml:space="preserve">
<style type="text/css">
	.st0{enable-background:new    ;}
</style>
<path id="Path_126" class="st0" d="M25.4,7.3V3.6c0-1.3-4-3.6-9-3.6s-9,2.3-9,3.6v3.7c0,3.5,6.2,6.3,6.2,8.7s-6.2,5.2-6.2,8.7v3.7
	c0,1.3,4,3.6,9,3.6s9-2.3,9-3.6v-3.7c0-3.4-6.2-6.3-6.2-8.7S25.4,10.8,25.4,7.3z M9.9,3.7c2-1.2,4.3-1.8,6.6-1.7
	c2.2,0.1,4.4,0.7,6.4,1.7c0.2,0.1,1.1,0.6,0.5,1c-2.2,1.1-4.6,1.7-7,1.6c-2.4,0-4.8-0.6-6.9-1.7C8.9,4.3,9.9,3.7,9.9,3.7z M17.2,16
	c0,1.9,1.6,3.1,3.3,4.8c1.2,1.2,2.9,2.8,2.9,3.9v2.1c-1.6-0.8-6.2-1.5-6.2-4c0.1-0.5-0.3-0.9-0.7-0.9c-0.5-0.1-0.9,0.3-0.9,0.7
	c0,0.1,0,0.1,0,0.2c0,2.5-4.6,3.2-6.2,4v-2.1c0-1.1,1.7-2.7,2.9-3.9c1.7-1.6,3.3-2.9,3.3-4.8s-1.6-3.1-3.3-4.8
	c-1.2-1.2-2.9-2.8-2.9-3.9l0-0.5c1.1,0.8,3.2,1.8,7,1.8c4.3,0,6.2-1.2,7-2.1l0,0.7c0,1.1-1.7,2.7-2.9,3.9
	C18.8,12.9,17.2,14.1,17.2,16z"/>
</svg>
