<?xml version="1.0" encoding="utf-8"?>
<!-- Generator: Adobe Illustrator 23.0.2, SVG Export Plug-In . SVG Version: 6.00 Build 0)  -->
<svg version="1.1" id="Layer_1" xmlns="http://www.w3.org/2000/svg" xmlns:xlink="http://www.w3.org/1999/xlink" x="0px" y="0px"
	 viewBox="0 0 32 32" style="enable-background:new 0 0 32 32;" xml:space="preserve">
<path d="M30.2,31.7L21,22.6C15.6,27.1,7.6,26.4,3,21S-0.9,7.5,4.6,3s13.5-3.9,18,1.5c4,4.8,4,11.7,0,16.5l9.1,9.1
	c0.4,0.4,0.4,1.1,0,1.5c0,0,0,0,0,0C31.3,32.1,30.6,32.1,30.2,31.7C30.2,31.7,30.2,31.7,30.2,31.7L30.2,31.7z M2.1,12.8
	c0,5.9,4.8,10.7,10.7,10.7c5.9,0,10.7-4.8,10.7-10.7c0-5.9-4.8-10.7-10.7-10.7C6.9,2.1,2.1,6.9,2.1,12.8z M9.2,17.6
	c-0.7,0-1.2-0.5-1.2-1.2V9.3c0-0.7,0.5-1.2,1.2-1.2h7.1c0.7,0,1.2,0.5,1.2,1.2v7.1c0,0.7-0.5,1.2-1.2,1.2c0,0,0,0,0,0L9.2,17.6z
	 M10,15.6h5.5v-5.5H10V15.6z"/>
</svg>
