<?xml version="1.0" encoding="utf-8"?>
<!-- Generator: Adobe Illustrator 22.0.1, SVG Export Plug-In . SVG Version: 6.00 Build 0)  -->
<svg version="1.1" id="Layer_1" xmlns="http://www.w3.org/2000/svg" xmlns:xlink="http://www.w3.org/1999/xlink" x="0px" y="0px"
	 viewBox="0 0 32 32" style="enable-background:new 0 0 32 32;" xml:space="preserve">
<path id="XMLID_448_" d="M15.9,32c-0.5,0-0.8-0.3-1.3-0.5l-8.8-9.1c-0.3-0.3-0.5-0.8-0.5-1.3c0-0.3,0-0.8,0.3-0.8
	c0.3-0.5,0.8-1.6,1.6-1.6H25c0.8,0,1.3,0.8,1.6,1.6c0.3,0.5,0,1.9-0.3,2.4l-8.8,8.8C16.7,32,16.5,32,15.9,32z M14.6,0.5L5.8,9.6
	c-0.5,0.5-0.5,1.6-0.3,2.1c0.3,0.5,0.8,1.6,1.6,1.6H25c0.8,0,1.3-0.8,1.6-1.6c0-0.3,0.3-0.8,0.3-1.1c0-0.5-0.3-0.8-0.5-1.3l-8.8-8.8
	C16.7,0.3,16.5,0,15.9,0C15.4,0,15.1,0.3,14.6,0.5z"/>
</svg>
