<?xml version="1.0" encoding="utf-8"?>
<!-- Generator: Adobe Illustrator 23.0.2, SVG Export Plug-In . SVG Version: 6.00 Build 0)  -->
<svg version="1.1" id="Layer_1" xmlns="http://www.w3.org/2000/svg" xmlns:xlink="http://www.w3.org/1999/xlink" x="0px" y="0px"
	 viewBox="0 0 32 32" style="enable-background:new 0 0 32 32;" xml:space="preserve">
<path d="M32,16c0,8.8-7.2,16-16,16S0,24.8,0,16c0-4.5,1.9-8.5,4.8-11.4l1.9,0.1l0.3,1.9C4.6,9,3,12.3,3,16c0,7.2,5.8,13,13,13
	s13-5.8,13-13S23.2,3,16,3c-0.2,0-0.4,0-0.6,0L16,1.4l-1.4-1.3C15.1,0,15.5,0,16,0C24.8,0,32,7.2,32,16z"/>
</svg>
