<?xml version="1.0" encoding="utf-8"?>
<!-- Generator: Adobe Illustrator 23.0.2, SVG Export Plug-In . SVG Version: 6.00 Build 0)  -->
<svg version="1.1" id="Layer_1" xmlns="http://www.w3.org/2000/svg" xmlns:xlink="http://www.w3.org/1999/xlink" x="0px" y="0px"
	 viewBox="0 0 32 32" style="enable-background:new 0 0 32 32;" xml:space="preserve">
<path d="M0.6,15.4l7.4,2.8l2.9,9.2c0.1,0.5,0.6,0.7,1.1,0.6c0.1,0,0.2-0.1,0.3-0.2l4.1-3.4c0.4-0.3,1-0.4,1.5,0l7.4,5.4
	c0.4,0.3,0.9,0.2,1.2-0.2c0.1-0.1,0.1-0.2,0.1-0.3L32,3.1c0.1-0.5-0.2-0.9-0.7-1c-0.2,0-0.3,0-0.5,0L0.6,13.8
	c-0.4,0.2-0.7,0.7-0.5,1.1C0.1,15.2,0.3,15.3,0.6,15.4z M10.3,16.7l14.4-8.9c0.1-0.1,0.3-0.1,0.4,0c0.1,0.1,0.1,0.3-0.1,0.4l0,0
	L13.2,19.3c-0.4,0.4-0.7,0.9-0.8,1.5l-0.4,3c0,0.2-0.2,0.3-0.4,0.3c-0.1,0-0.3-0.1-0.3-0.3l-1.6-5.5C9.5,17.7,9.8,17.1,10.3,16.7
	L10.3,16.7z"/>
</svg>
