<?xml version="1.0" encoding="utf-8"?>
<!-- Generator: Adobe Illustrator 22.0.1, SVG Export Plug-In . SVG Version: 6.00 Build 0)  -->
<svg version="1.1" id="Layer_1" xmlns="http://www.w3.org/2000/svg" xmlns:xlink="http://www.w3.org/1999/xlink" x="0px" y="0px"
	 viewBox="0 0 32 32" style="enable-background:new 0 0 32 32;" xml:space="preserve">
<path id="XMLID_148_" d="M31.3,28.1c0.9,0.9,0.9,2.3,0,3.2c-0.5,0.5-0.9,0.7-1.6,0.7s-1.1-0.2-1.6-0.7L16,19.2L3.9,31.3
	C3.4,31.8,3,32,2.3,32s-1.1-0.2-1.6-0.7c-0.9-0.9-0.9-2.3,0-3.2L12.8,16L0.7,3.9c-0.9-0.9-0.9-2.3,0-3.2s2.3-0.9,3.2,0L16,12.8
	L28.1,0.7c0.9-0.9,2.3-0.9,3.2,0s0.9,2.3,0,3.2L19.2,16L31.3,28.1z"/>
</svg>
