<?xml version="1.0" encoding="utf-8"?>
<!-- Generator: Adobe Illustrator 23.0.2, SVG Export Plug-In . SVG Version: 6.00 Build 0)  -->
<svg version="1.1" id="Layer_1" xmlns="http://www.w3.org/2000/svg" xmlns:xlink="http://www.w3.org/1999/xlink" x="0px" y="0px"
	 viewBox="0 0 32 32" style="enable-background:new 0 0 32 32;" xml:space="preserve">
<path d="M28.4,14.8c1.5,0,2.8-0.8,3.5-2.1c-1.2,0.6-2.5,0.7-3.8,0.4c-0.1-0.3-0.1-0.5-0.2-0.7c-0.8-3.1-3.7-5.6-6.8-5.3
	c0.2-0.1,0.5-0.2,0.7-0.3c0.3-0.1,2.3-0.4,2-1.1c-0.3-0.6-2.7,0.5-3.1,0.6C21.3,6,22.3,5.7,22.4,5c-0.9,0.1-1.8,0.6-2.5,1.2
	c0.3-0.3,0.4-0.6,0.5-1c-2.4,1.5-3.9,4.7-5,7.7c-0.7-0.8-1.5-1.4-2.4-1.9c-2.6-1.4-5.4-2.6-8.2-3.6c-0.1,1.3,0.6,2.9,2.7,4
	c-0.7,0-1.3,0.1-2,0.2c0.3,1.4,1.2,2.6,3.6,3.2c-0.8,0-1.6,0.3-2.2,0.9c0.7,1.4,2.3,2.2,3.9,1.9c-2.5,1.1-1,3,1,2.7
	C8.7,23.7,3.4,23.8,0,20.7c8.1,11,25.6,6.5,28.2-4.1c1.4,0.1,2.8-0.4,3.8-1.4C30.8,15.3,29.5,15.2,28.4,14.8z"/>
</svg>
