<?xml version="1.0" encoding="utf-8"?>
<!-- Generator: Adobe Illustrator 23.0.2, SVG Export Plug-In . SVG Version: 6.00 Build 0)  -->
<svg version="1.1" id="Layer_1" xmlns="http://www.w3.org/2000/svg" xmlns:xlink="http://www.w3.org/1999/xlink" x="0px" y="0px"
	 viewBox="0 0 32 32" style="enable-background:new 0 0 32 32;" xml:space="preserve">
<path d="M22.9,32H5.6c-1.9,0-3.5-1.6-3.5-3.5V12.9c0-1.9,1.6-3.5,3.5-3.5h1.5c0,0.3,0.1,0.5,0.3,0.7l1,1H5.6c-1,0-1.7,0.8-1.7,1.7
	v15.6c0,1,0.8,1.7,1.7,1.7h17.4c1,0,1.7-0.8,1.7-1.7v-3.5h-2.6c-2.4,0-4.3-1.9-4.3-4.3c0-2.4,1.9-4.3,4.3-4.3h2.6v-3.5
	c0-1-0.8-1.7-1.7-1.7h-3l1-1c0.2-0.2,0.3-0.4,0.3-0.6c0-0.1,0-0.1,0-0.2h5.3c1.9,0,3.5,1.5,3.5,3.5c0,0,0,0,0,0v15.6
	c0,1.9-1.6,3.5-3.5,3.5H22.9z M26.4,28.5c0,0.6-0.2,1.2-0.5,1.7h0.5c1,0,1.7-0.8,1.7-1.7v-3.5h-1.7V28.5z M19.5,20.7
	c0,1.4,1.2,2.6,2.6,2.6h6.1v-5.2h-6.1C20.6,18.1,19.5,19.3,19.5,20.7L19.5,20.7z M26.4,12.9v3.5h1.7v-3.5c0-1-0.8-1.7-1.7-1.7h-0.5
	C26.2,11.7,26.4,12.3,26.4,12.9z M21.2,20.7c0-0.5,0.4-0.9,0.9-0.9s0.9,0.4,0.9,0.9s-0.4,0.9-0.9,0.9h0
	C21.6,21.6,21.2,21.2,21.2,20.7z M14,14.7c-0.2,0-0.5-0.1-0.6-0.3l-4.2-4.3c-0.3-0.3-0.3-0.9,0-1.2c0.3-0.3,0.8-0.3,1.2,0l2.9,2.9
	V0.9c0-0.5,0.4-0.9,0.9-0.9C14.6,0,15,0.4,15,0.9v11L17.8,9c0.3-0.3,0.8-0.3,1.2,0c0,0,0,0,0,0c0.2,0.2,0.3,0.4,0.3,0.6
	c0,0.2-0.1,0.5-0.3,0.6l-4.2,4.2c-0.2,0.2-0.4,0.3-0.6,0.3L14,14.7z"/>
</svg>
