<svg xmlns="http://www.w3.org/2000/svg" xmlns:xlink="http://www.w3.org/1999/xlink" width="544" height="550" viewBox="0 0 544 550"><defs><clipPath id="a"><rect width="544" height="550" transform="translate(3620 2783)" fill="none"/></clipPath><linearGradient id="b" x1="0.344" y1="0.327" x2="0.448" y2="0.791" gradientUnits="objectBoundingBox"><stop offset="0" stop-color="#242424"/><stop offset="1" stop-color="#fff" stop-opacity="0.588"/></linearGradient><linearGradient id="c" x1="0.5" y1="1" x2="0.489" y2="0.017" gradientUnits="objectBoundingBox"><stop offset="0" stop-color="#242424" stop-opacity="0"/><stop offset="1" stop-color="#fff" stop-opacity="0.4"/></linearGradient><linearGradient id="d" x1="0.596" y1="0.717" x2="0.503" y2="0.007" gradientUnits="objectBoundingBox"><stop offset="0" stop-color="#242424" stop-opacity="0"/><stop offset="1" stop-color="#fff" stop-opacity="0.502"/></linearGradient><linearGradient id="e" x1="0.367" y1="0.374" x2="0.448" y2="0.791" gradientUnits="objectBoundingBox"><stop offset="0" stop-color="#242424" stop-opacity="0"/><stop offset="1" stop-color="#fff" stop-opacity="0.588"/></linearGradient><linearGradient id="f" x1="0.481" y1="0.181" x2="0.511" y2="0.983" xlink:href="#c"/><linearGradient id="g" x1="0.32" y1="0.258" x2="0.497" y2="0.993" gradientUnits="objectBoundingBox"><stop offset="0" stop-color="#242424" stop-opacity="0"/><stop offset="1" stop-color="#fff" stop-opacity="0.255"/></linearGradient></defs><g transform="translate(-3620 -2783)" clip-path="url(#a)"><g transform="translate(2964)"><path d="M21,298.312l0,0c-4.473-5.652-18.764-13.872-21-86.953C21.484-38.142,324.528,3.714,335.948,1.249c-7.31,79.552-16.465,129.135-20.65,179.666-3.077,6.991-8.772,12.679-17.408,17.389-7.459,4.068-15.849,6.74-23.252,9.1l-.014,0c-.885.282-1.722.548-2.557.817-9.133,2.939-56.108,14.34-101.537,25.365C133,242.7,97.552,251.3,86.95,254.288c-4.606,1.3-10.755,3.1-17.47,5.5a148.376,148.376,0,0,0-19.976,8.72,77.706,77.706,0,0,0-17.74,12.614A39.753,39.753,0,0,0,21,298.309Z" transform="matrix(-0.999, 0.035, -0.035, -0.999, 1049.007, 3258.846)" opacity="0.3" fill="url(#b)"/><path d="M314.077,4.2C321.849,46.3,350.8,165.029,334.1,174.445,320.587,182.066.488,261.013.2,263.656c-2.98-2.093,27.772-141.056,25.111-143.27,2.107-8.214,7.358-14.778,16.052-20.07,7.491-4.559,16.195-7.392,23.874-9.892.837-.273,1.628-.53,2.428-.793,8.635-2.839,53.048-13.857,96-24.512,35.471-8.8,68.97-17.109,78.991-19.994,8.1-2.331,24.949-7.182,39.1-14.8,7.527-4.049,13.43-8.423,17.547-13C304.18,11.913,306.665,6.083,306.7,0,306.7,0,311.7,2.77,314.077,4.2Z" transform="matrix(0.999, -0.035, 0.035, 0.999, 755.687, 3020.54)" fill="url(#c)"/><path d="M222.656.007c12.522.072,25.05.728,37.238,1.949C271.78,3.148,283.5,4.893,294.731,7.143c6.392,1.281,4.736-1.236,10.85.379,1.144,5.045,57.382,149.447,55.526,153.29-1.64,3.4-58.971,57.649-62.982,60.215a55.783,55.783,0,0,1-12.532,5.65c-4.511,1.495-9.27,2.7-13.468,3.759-1.864.471-3.623.916-5.287,1.364-9.516,2.566-34.49,8.791-66.836,16.4-27.62,6.494-70.067,16.214-115.438,25.638a172.17,172.17,0,0,0-21.178,5.7,94.3,94.3,0,0,0-15.278,6.715c-7.691,4.329-44.685-7.3-47.792-1.669-4.01-7.458,31.425-185.754,31.361-193.5a46.869,46.869,0,0,1,3.741-18.555A63.732,63.732,0,0,1,46.447,55.292,101.031,101.031,0,0,1,64,39.735,157.362,157.362,0,0,1,87.3,26.227,225.818,225.818,0,0,1,115.58,15.134a295.322,295.322,0,0,1,32.5-8.312,354.481,354.481,0,0,1,35.948-5.165C196.65.487,209.646-.068,222.656.007Z" transform="matrix(0.999, -0.035, 0.035, 0.999, 801.086, 3045.741)" fill="url(#d)"/><ellipse cx="218.222" cy="118.512" rx="218.222" ry="118.512" transform="translate(704.914 2966.467)" fill="#816105"/><ellipse cx="218.222" cy="118.512" rx="218.222" ry="118.512" transform="translate(704.914 2952.051)" fill="#dfa600"/><path d="M193.828,202.42a367.63,367.63,0,0,1-37.493-2.14,336.006,336.006,0,0,1-35.076-5.695c-6.436-1.406-12.82-3.018-18.975-4.792-1.152-5.539-.789-10.486,1.079-14.705a23.472,23.472,0,0,1,8.457-9.73,54.051,54.051,0,0,1,12.618-6.2c4.542-1.641,9.333-2.962,13.561-4.127,1.877-.517,3.648-1.005,5.323-1.5,9.581-2.817,34.726-9.652,67.294-18,27.809-7.13,70.547-17.8,116.228-28.149a162.063,162.063,0,0,0,21.323-6.259,91.158,91.158,0,0,0,15.382-7.373c7.743-4.753,13.256-10.3,16.384-16.475a57.568,57.568,0,0,1,6.181,25.15,55.51,55.51,0,0,1-3.767,20.372,71.068,71.068,0,0,1-11.1,18.927,105.209,105.209,0,0,1-17.669,17.08,155.844,155.844,0,0,1-23.46,14.831,216.5,216.5,0,0,1-28.478,12.179,277.471,277.471,0,0,1-32.722,9.126,329.215,329.215,0,0,1-36.194,5.67A365.494,365.494,0,0,1,193.828,202.42ZM57.33,172.048l0,0c-2.665-1.4-5.29-2.867-7.8-4.352-3.244-12.052,4.068-23.1,21.733-32.849,14.3-7.888,31.712-12.859,40.081-15.248,1.112-.317,2.071-.591,2.848-.822,5.893-1.749,26.729-7.456,57.549-15.326,25.637-6.546,65.676-16.5,110.833-26.726,22.815-5.168,39.788-11.454,50.449-18.683a36.713,36.713,0,0,0,9.8-9.209A17.763,17.763,0,0,0,346,40.727c3.153,2.166,6.177,4.427,8.993,6.719-2.229,8.5-7.783,15.3-16.981,20.772-7.924,4.719-17.132,7.651-25.256,10.238-.886.282-1.722.549-2.568.821-9.134,2.939-56.118,14.342-101.555,25.37-37.524,9.107-72.961,17.708-83.562,20.694-8.567,2.413-26.393,7.434-41.365,15.313-7.962,4.19-14.207,8.718-18.562,13.456-5.151,5.606-7.781,11.64-7.815,17.936ZM14.847,138.712l0,0A73.7,73.7,0,0,1,4.4,121.217,56.545,56.545,0,0,1,0,100,55.51,55.51,0,0,1,3.768,79.633a71.064,71.064,0,0,1,11.1-18.927,105.215,105.215,0,0,1,17.669-17.08A155.848,155.848,0,0,1,56,28.8,216.517,216.517,0,0,1,84.478,16.616,277.487,277.487,0,0,1,117.2,7.49a329.184,329.184,0,0,1,36.193-5.67A365.47,365.47,0,0,1,192.285.007a356.491,356.491,0,0,1,62.684,5.838,283.628,283.628,0,0,1,54.177,15.471c-3.077,6.991-8.772,12.679-17.408,17.389-7.459,4.068-15.849,6.74-23.252,9.1l-.014,0c-.885.282-1.722.548-2.557.817-9.133,2.939-56.108,14.34-101.537,25.365C126.845,83.1,91.4,91.7,80.8,94.688c-4.606,1.3-10.755,3.1-17.47,5.5a148.372,148.372,0,0,0-19.976,8.72,77.7,77.7,0,0,0-17.74,12.614,39.752,39.752,0,0,0-10.763,17.183ZM344.435,39.664a183.376,183.376,0,0,0-24.567-13.7,182.849,182.849,0,0,1,24.57,13.7Z" transform="matrix(0.999, -0.035, 0.035, 0.999, 726.368, 2975.37)" fill="#242424"/><path d="M55.45,318.952l0,0c-4.473-5.652-93.01-122.482-120.824-182.6C17.165-38.018,384.278,28.305,395.7,25.84c-19.847,84.958-27.71,99.732-45.949,175.715-3.077,6.991-8.772,12.679-17.408,17.388-7.459,4.068-15.849,6.74-23.252,9.1l-.014,0c-.885.282-1.722.548-2.557.817-9.133,2.939-56.108,14.34-101.537,25.365-37.532,9.109-72.977,17.712-83.58,20.7-4.606,1.3-10.755,3.1-17.47,5.5a148.373,148.373,0,0,0-19.976,8.72,77.7,77.7,0,0,0-17.74,12.614,39.752,39.752,0,0,0-10.763,17.183Z" transform="matrix(0.999, -0.035, 0.035, 0.999, 679.5, 2796.657)" opacity="0.3" fill="url(#e)"/><path d="M26.585,268.535C-.034,222.179-62.977,117.911-62.449,118.027-48.151,110.139,358.317,2.736,358.618,0c3.153,2.166-29.379,145.994-26.564,148.286-2.229,8.5-7.783,15.3-16.981,20.772-7.924,4.719-17.132,7.651-25.256,10.238-.886.282-1.722.549-2.568.821-9.134,2.939-56.118,14.342-101.555,25.37-37.524,9.107-72.96,17.708-83.562,20.694-8.567,2.413-26.393,7.434-41.365,15.313-7.962,4.191-14.207,8.718-18.562,13.456-5.151,5.606-7.781,11.64-7.815,17.936C34.392,272.886,29.1,270.02,26.585,268.535Z" transform="matrix(0.999, -0.035, 0.035, 0.999, 745.772, 2874.107)" fill="url(#f)"/><path d="M133.766,325.882a367.624,367.624,0,0,1-37.493-2.14A336.028,336.028,0,0,1,61.2,318.047c-6.436-1.406-12.82-3.018-18.975-4.792-1.152-5.539-84.34-177.822-82.472-182.041,1.652-3.73,93.991-45.176,98.03-47.994a54.052,54.052,0,0,1,12.618-6.2c4.542-1.641,9.333-2.962,13.561-4.127,1.877-.517,3.648-1.005,5.323-1.5,9.581-2.817,34.726-9.652,67.294-18,27.809-7.13,70.547-17.8,116.228-28.149a162.063,162.063,0,0,0,21.323-6.259,91.158,91.158,0,0,0,15.382-7.373C317.251,6.856,379.141,6.179,382.269,0c4.038,8.188-56.283,217.385-56.218,225.885a55.511,55.511,0,0,1-3.767,20.372,71.072,71.072,0,0,1-11.1,18.927,105.208,105.208,0,0,1-17.669,17.08,155.846,155.846,0,0,1-23.46,14.831,216.5,216.5,0,0,1-28.478,12.179,277.485,277.485,0,0,1-32.722,9.126,329.221,329.221,0,0,1-36.194,5.67A365.477,365.477,0,0,1,133.766,325.882Z" transform="matrix(0.999, -0.035, 0.035, 0.999, 782.064, 2849.586)" fill="url(#g)"/></g></g></svg>