<svg xmlns="http://www.w3.org/2000/svg" width="90" height="90" viewBox="0 0 90 90"><path d="M48,190.452H94.452V144H48ZM50.9,146.9H91.548v40.645H50.9Z" transform="translate(-39 -118)" fill="#009dff"/><path d="M46.452,159.871v-2.9h2.9v2.9h2.9v-2.9h2.9v2.9h2.9v-2.9h2.9v-2.9h2.9v-2.9h-2.9v-2.9h2.9v-2.9h-2.9v-2.9h2.9v-2.9h-2.9v-2.9h2.9v-2.9h-2.9v-2.9h2.9v-2.9h-2.9V98.9H31.935V96h-2.9v2.9h-2.9V96h-2.9v2.9h-2.9V96h-2.9v2.9h-2.9V96h-2.9v2.9H8.71V96h-2.9v2.9H2.9v29.032H0v2.9H2.9v2.9H0v2.9H2.9v2.9H0v2.9H2.9v2.9H0v2.9H2.9v2.9H0v2.9H2.9v2.9H31.935v2.9h2.9v-2.9h2.9v2.9h2.9v-2.9h2.9v2.9ZM5.806,101.806H58.065v52.258H5.806V101.806Z" transform="translate(0 -78.581)" fill="#242424"/><path d="M448,0h2.9V2.9H448Z" transform="translate(-366.71)" fill="#009dff"/><path d="M170.73,2.9h25.528V0h-26.73l-5.806,5.806H144v2.9h20.924Z" transform="translate(-117.871)" fill="#242424"/><path d="M480,0h2.9V2.9H480Z" transform="translate(-392.903)" fill="#009dff"/><path d="M384,32h2.9v2.9H384Z" transform="translate(-314.323 -26.194)" fill="#009dff"/><path d="M168,37.806v2.9h19.472l5.806-5.806H204.29V32H192.076l-5.806,5.806Z" transform="translate(-137.516 -26.194)" fill="#242424"/><path d="M416,32h2.9v2.9H416Z" transform="translate(-340.516 -26.194)" fill="#009dff"/><path d="M261.915,447.258H248v2.9h15.117l7.258-7.258h16.818V440H269.173Z" transform="translate(-203 -360.161)" fill="#242424"/><path d="M480,440h2.9v2.9H480Z" transform="translate(-392.903 -360.161)" fill="#009dff"/><path d="M368,408h17.419v2.9H368Z" transform="translate(-301.226 -333.968)" fill="#242424"/><path d="M480,408h2.9v2.9H480Z" transform="translate(-392.903 -333.968)" fill="#009dff"/><path d="M368,376h17.419v2.9H368Z" transform="translate(-301.226 -307.774)" fill="#242424"/><path d="M480,376h2.9v2.9H480Z" transform="translate(-392.903 -307.774)" fill="#009dff"/><path d="M368,96h17.419v2.9H368Z" transform="translate(-301.226 -78.581)" fill="#242424"/><path d="M480,96h2.9v2.9H480Z" transform="translate(-392.903 -78.581)" fill="#009dff"/><path d="M368,64h17.419v2.9H368Z" transform="translate(-301.226 -52.387)" fill="#242424"/><path d="M480,64h2.9v2.9H480Z" transform="translate(-392.903 -52.387)" fill="#009dff"/><path d="M14,28a14.111,14.111,0,0,1-2.718-.264,13.9,13.9,0,0,1-3.914-1.4A6.146,6.146,0,0,1,7.454,24.3a3.576,3.576,0,0,1,.619-1.353,3.949,3.949,0,0,1,.918-.869,9.665,9.665,0,0,1,.986-.583c.136-.073.265-.142.387-.212.7-.4,2.524-1.365,4.89-2.549,2.021-1.01,5.126-2.524,8.445-3.995a8.39,8.39,0,0,0,1.55-.884,6.5,6.5,0,0,0,1.12-1.033,5.86,5.86,0,0,0,1.2-2.293A13.991,13.991,0,0,1,14,28ZM4.118,23.917h0c-.192-.192-.382-.392-.564-.6a5.373,5.373,0,0,1,1.594-4.563,11.849,11.849,0,0,1,2.915-2.144L8.27,16.5c.428-.247,1.943-1.055,4.182-2.17,1.863-.928,4.772-2.339,8.053-3.793a9.287,9.287,0,0,0,3.669-2.628,4.782,4.782,0,0,0,.716-1.283A4.025,4.025,0,0,0,25.125,5.5c.227.3.446.607.648.922A5.375,5.375,0,0,1,24.531,9.31a7.576,7.576,0,0,1-1.837,1.438l-.187.116c-.664.414-4.078,2.033-7.379,3.6-2.726,1.292-5.3,2.513-6.071,2.935a12.847,12.847,0,0,0-3.008,2.154,7.059,7.059,0,0,0-1.354,1.878,5.767,5.767,0,0,0-.577,2.488ZM1.055,19.342h0a13.942,13.942,0,0,1-.748-2.411,14.135,14.135,0,0,1-.023-5.752A13.923,13.923,0,0,1,2.391,6.172,14.041,14.041,0,0,1,8.551,1.1,13.929,13.929,0,0,1,11.178.284a14.1,14.1,0,0,1,7.364.469,13.941,13.941,0,0,1,3.92,2.093,5.072,5.072,0,0,1-1.272,2.421A8.082,8.082,0,0,1,19.5,6.546h0l-.186.115c-.664.414-4.077,2.032-7.378,3.6-2.727,1.293-5.3,2.513-6.073,2.936a13.893,13.893,0,0,0-1.27.777,9.823,9.823,0,0,0-1.453,1.224,7.854,7.854,0,0,0-1.294,1.76,7.494,7.494,0,0,0-.79,2.386ZM25.012,5.354A14.132,14.132,0,0,0,23.238,3.48a14.09,14.09,0,0,1,1.774,1.874Z" transform="translate(18 35)" fill="#242424"/></svg>