<svg xmlns="http://www.w3.org/2000/svg" width="90" height="90" viewBox="0 0 90 90"><path d="M90,37.742H83.5a39.134,39.134,0,0,0-7.753-17.048l-2.277,1.8A36.223,36.223,0,0,1,80.55,37.742H75.484v5.806H71.055a26.122,26.122,0,0,0-24.6-24.6V14.516h5.806V9.452a36.255,36.255,0,0,1,15.272,7.1l1.8-2.274A39.116,39.116,0,0,0,52.258,6.5V0H37.742V6.5a39.139,39.139,0,0,0-17.093,7.789l1.8,2.274a36.207,36.207,0,0,1,15.289-7.11v5.064h5.806v4.429a26.122,26.122,0,0,0-24.6,24.6H14.516V37.742H9.45a36.246,36.246,0,0,1,7.1-15.271l-2.274-1.8A39.119,39.119,0,0,0,6.5,37.742H0V52.258H6.5a39.133,39.133,0,0,0,7.775,17.076l2.274-1.8a36.23,36.23,0,0,1-7.1-15.272h5.064V46.452h4.429a26.122,26.122,0,0,0,24.6,24.6v4.429H37.742V80.55a36.256,36.256,0,0,1-15.272-7.1l-1.8,2.274A39.138,39.138,0,0,0,37.742,83.5V90H52.258V83.5a39.133,39.133,0,0,0,17.076-7.775l-1.8-2.274a36.222,36.222,0,0,1-15.272,7.1V75.484H46.452V71.055a26.122,26.122,0,0,0,24.6-24.6h4.429v5.806H80.55a36.252,36.252,0,0,1-6.943,15.075l2.287,1.788A39.136,39.136,0,0,0,83.5,52.258H90ZM40.645,2.9h8.71v8.71h-8.71ZM11.613,49.355H2.9v-8.71h8.71ZM49.355,87.1h-8.71v-8.71h8.71ZM45,68.226A23.226,23.226,0,1,1,68.226,45,23.253,23.253,0,0,1,45,68.226ZM87.1,49.355h-8.71v-8.71H87.1Z" fill="#242424"/><path d="M88,392h2.9v2.9H88Z" transform="translate(-72.032 -320.871)" fill="#009dff"/><path d="M120,360h2.9v2.9H120Z" transform="translate(-98.226 -294.677)" fill="#009dff"/><path d="M56,424h2.9v2.9H56Z" transform="translate(-45.839 -347.065)" fill="#009dff"/><path d="M392,392h2.9v2.9H392Z" transform="translate(-320.871 -320.871)" fill="#009dff"/><path d="M360,360h2.9v2.9H360Z" transform="translate(-294.677 -294.677)" fill="#009dff"/><path d="M424,424h2.9v2.9H424Z" transform="translate(-347.065 -347.065)" fill="#009dff"/><path d="M392,88h2.9v2.9H392Z" transform="translate(-320.871 -72.032)" fill="#009dff"/><path d="M360,120h2.9v2.9H360Z" transform="translate(-294.677 -98.226)" fill="#009dff"/><path d="M424,56h2.9v2.9H424Z" transform="translate(-347.065 -45.839)" fill="#009dff"/><path d="M88,88h2.9v2.9H88Z" transform="translate(-72.032 -72.032)" fill="#009dff"/><path d="M120,120h2.9v2.9H120Z" transform="translate(-98.226 -98.226)" fill="#009dff"/><path d="M56,56h2.9v2.9H56Z" transform="translate(-45.839 -45.839)" fill="#009dff"/><path d="M14,28.073a13.823,13.823,0,0,1-8.482-2.867A14.183,14.183,0,0,0,7.368,26.4c-.344-3.265,1.363-4.182,2.609-4.852.136-.073.265-.143.387-.213,1.449-.831,7.344-3.9,13.334-6.56a6.389,6.389,0,0,0,3.866-4.221A14.083,14.083,0,0,1,23.9,23.961,13.891,13.891,0,0,1,14,28.073ZM4.118,23.979l0,0c-.192-.192-.381-.392-.562-.6-.537-3.916,3.261-6.031,4.509-6.725l.207-.116c.859-.5,6.1-3.253,12.235-5.978,3.661-1.628,4.533-3.643,4.621-5.047.232.3.45.615.648.924a5.574,5.574,0,0,1-3.08,4.337l-.187.116c-.664.416-4.082,2.04-7.386,3.611C12.4,15.8,9.826,17.019,9.056,17.442A12.852,12.852,0,0,0,6.048,19.6a6.174,6.174,0,0,0-1.93,4.375ZM1.055,19.391v0A14.08,14.08,0,0,1,4.1,4.111,13.974,13.974,0,0,1,22.463,2.854,5.554,5.554,0,0,1,19.5,6.564l-.185.115c-.663.415-4.068,2.033-7.361,3.6-2.735,1.3-5.316,2.527-6.088,2.952C1.653,15.54,1.2,18.436,1.056,19.388Z" transform="translate(31 31)" fill="#242424"/></svg>