<svg xmlns="http://www.w3.org/2000/svg" width="81.291" height="90" viewBox="0 0 81.291 90"><g transform="translate(-603 -1553)"><path d="M165.71,33.387h-2.9V26.129h-2.9v-8.71h-7.341c.042-.48.083-.963.083-1.452a15.968,15.968,0,0,0-31.935,0c0,.489.04.971.083,1.452h-2.986A5.812,5.812,0,0,0,112,23.226v36.29a7.267,7.267,0,0,0,7.258,7.258h7.258v2.9h-7.258V84.194h2.9V72.581h4.355v5.806h2.9V60.968h-2.9v2.9H120.71V46.452h-2.9V63.6a4.349,4.349,0,0,1-2.9-4.088V28.225a5.743,5.743,0,0,0,2.9.807V43.548h2.9V29.032H159.9V39.194H157a7.258,7.258,0,0,0,0,14.516h2.9V63.871h-7.258v-2.9h-2.9V78.387h2.9V72.581H157V84.194h2.9V69.677h-7.258v-2.9h10.161V53.71h2.9a4.361,4.361,0,0,0,4.355-4.355V37.742A4.361,4.361,0,0,0,165.71,33.387ZM157,20.323v5.806h-8a15.733,15.733,0,0,0,3.024-5.806Zm-30.526,3.8a12.883,12.883,0,0,1-2.777-6.7h2.935a10.082,10.082,0,0,0,1.919,4.622Zm20.248-9.6A10.082,10.082,0,0,0,144.8,9.894l2.071-2.071a13,13,0,0,1,2.781,6.693Zm-3.971-6.675a10.082,10.082,0,0,0-4.622-1.919V2.989a13,13,0,0,1,6.693,2.781Zm-7.525-1.919A10.082,10.082,0,0,0,130.6,7.841L128.533,5.77a13,13,0,0,1,6.693-2.781Zm-6.675,3.971a10.082,10.082,0,0,0-1.919,4.622H123.7a13,13,0,0,1,2.781-6.693Zm.868,6.074a7.258,7.258,0,1,1,7.258,7.258A7.267,7.267,0,0,1,129.419,15.968Zm17.3,1.452h2.935a12.882,12.882,0,0,1-2.777,6.7L144.8,22.041A10.082,10.082,0,0,0,146.722,17.419ZM114.9,23.226a2.906,2.906,0,0,1,2.9-2.9h3.523a15.711,15.711,0,0,0,3.024,5.806h-6.546A2.906,2.906,0,0,1,114.9,23.226Zm13.665,2.9,2.035-2.035a10.082,10.082,0,0,0,12.147,0l2.035,2.035Zm38.593,23.226a1.454,1.454,0,0,1-1.452,1.452H157a4.355,4.355,0,0,1,0-8.71h8.71a4.371,4.371,0,0,0,1.452-.248ZM165.71,39.194h-2.9v-2.9h2.9a1.452,1.452,0,0,1,0,2.9Z" transform="translate(506.968 1553)" fill="#242424"/><path d="M352,248h2.9v2.9H352Z" transform="translate(310.516 1350)" fill="#009dff"/><path d="M320,448h2.9v2.9H320Z" transform="translate(336.71 1186.29)" fill="#009dff"/><path d="M288,350h2.9v9.073H288Z" transform="translate(362.903 1266.508)" fill="#242424"/><path d="M288,416h2.9v2.9H288Z" transform="translate(362.903 1212.484)" fill="#009dff"/><path d="M360,480h2.9v2.9H360Z" transform="translate(303.968 1160.097)" fill="#009dff"/><path d="M192,448h2.9v2.9H192Z" transform="translate(441.484 1186.29)" fill="#009dff"/><path d="M224,350h2.9v9.073H224Z" transform="translate(415.29 1266.508)" fill="#242424"/><path d="M224,416h2.9v2.9H224Z" transform="translate(415.29 1212.484)" fill="#009dff"/><path d="M152,480h2.9v2.9H152Z" transform="translate(474.226 1160.097)" fill="#009dff"/><path d="M256,350h2.9v20.685H256Z" transform="translate(389.097 1266.508)" fill="#242424"/><path d="M256,480h2.9v2.9H256Z" transform="translate(389.097 1160.097)" fill="#009dff"/><path d="M376,0h2.9V2.9H376Z" transform="translate(290.871 1553)" fill="#009dff"/><path d="M360,16h2.9v2.9H360Z" transform="translate(303.968 1539.903)" fill="#009dff"/><path d="M376,32h2.9v2.9H376Z" transform="translate(290.871 1526.806)" fill="#009dff"/><path d="M392,16h2.9v2.9H392Z" transform="translate(277.774 1539.903)" fill="#009dff"/><path d="M440,80h2.9v2.9H440Z" transform="translate(238.484 1487.516)" fill="#009dff"/><path d="M424,96h2.9v2.9H424Z" transform="translate(251.581 1474.419)" fill="#009dff"/><path d="M440,112h2.9v2.9H440Z" transform="translate(238.484 1461.323)" fill="#009dff"/><path d="M456,96h2.9v2.9H456Z" transform="translate(225.387 1474.419)" fill="#009dff"/><path d="M112,32h2.9v2.9H112Z" transform="translate(506.968 1526.806)" fill="#009dff"/><path d="M96,48h2.9v2.9H96Z" transform="translate(520.065 1513.71)" fill="#009dff"/><path d="M112,64h2.9v2.9H112Z" transform="translate(506.968 1500.613)" fill="#009dff"/><path d="M128,48h2.9v2.9H128Z" transform="translate(493.871 1513.71)" fill="#009dff"/><path d="M40,120h2.9v2.9H40Z" transform="translate(565.903 1454.774)" fill="#009dff"/><path d="M24,136h2.9v2.9H24Z" transform="translate(579 1441.677)" fill="#009dff"/><path d="M40,152h2.9v2.9H40Z" transform="translate(565.903 1428.581)" fill="#009dff"/><path d="M56,136h2.9v2.9H56Z" transform="translate(552.806 1441.677)" fill="#009dff"/><path d="M9.974,20A9.968,9.968,0,0,1,5.25,18.809a3,3,0,0,1,1.858-3.457c.1-.052.189-.1.276-.152,1.031-.591,5.23-2.776,9.5-4.674A4.555,4.555,0,0,0,19.638,7.52,10.011,10.011,0,0,1,9.974,20Zm-7.04-2.917,0,0c-.137-.137-.272-.28-.4-.424-.38-2.788,2.323-4.294,3.212-4.789l.149-.084c.611-.353,4.344-2.316,8.716-4.259,2.609-1.159,3.23-2.6,3.292-3.6.167.219.322.44.462.658a3.972,3.972,0,0,1-2.2,3.091l-.132.082c-.473.3-2.9,1.45-5.249,2.566-1.947.926-3.784,1.8-4.333,2.1-.957.526-3.5,1.921-3.518,4.654ZM.752,13.815v0A10.009,10.009,0,0,1,9.974,0,9.868,9.868,0,0,1,16,2.033a3.954,3.954,0,0,1-2.111,2.643l-.132.082c-.473.3-2.9,1.45-5.249,2.566-1.947.926-3.784,1.8-4.333,2.1-3,1.648-3.32,3.709-3.425,4.386Z" transform="translate(634 1589)" fill="#242424"/></g></svg>