<svg xmlns="http://www.w3.org/2000/svg" xmlns:xlink="http://www.w3.org/1999/xlink" width="697.057" height="450" viewBox="0 0 697.057 450"><defs><clipPath id="a"><path d="M22.238,16.961H719.3v450H22.238Z" transform="translate(520 922.074)" fill="#fff"/></clipPath><radialGradient id="b" cx="0.5" cy="0.5" r="1.012" gradientTransform="matrix(0.357, -0.007, 0.001, 0.295, 0.321, 0.356)" gradientUnits="objectBoundingBox"><stop offset="0" stop-color="#242424"/><stop offset="1" stop-color="#fff" stop-opacity="0"/></radialGradient><linearGradient id="t" x1="0.408" y1="0.378" x2="0.765" y2="0.733" gradientUnits="objectBoundingBox"><stop offset="0" stop-color="#fff"/><stop offset="1" stop-color="#fff" stop-opacity="0"/></linearGradient><linearGradient id="w" x1="0.649" y1="0.609" x2="0.183" y2="0.127" xlink:href="#t"/><linearGradient id="x" x1="0.429" y1="0.559" x2="0.863" y2="0.126" xlink:href="#t"/><linearGradient id="y" x1="0.643" y1="0.283" x2="0.235" y2="0.659" xlink:href="#t"/><filter id="ab" x="126.708" y="53.655" width="565.333" height="351.553" filterUnits="userSpaceOnUse"><feOffset dx="-3" dy="10" input="SourceAlpha"/><feGaussianBlur stdDeviation="5" result="ac"/><feFlood flood-color="#242424" flood-opacity="0.2"/><feComposite operator="in" in2="ac"/><feComposite in="SourceGraphic"/></filter><clipPath id="ad"><path d="M1149.443,501.582c9.828,5.676,25.865,5.606,35.815-.16l123.02-70.959c14.888-9.564,10.038-15.031.215-20.7l-317.97-182.32c-14.894-7.78-20.788-7.78-35.809.148L831.557,298.454c-16.545,9.616-10.067,15.031-.236,20.706Z" transform="translate(-821.414 -221.623)" fill="#f42222" clip-rule="evenodd"/></clipPath><clipPath id="ae"><path d="M5.237,179.218,0,35.821,242.07,0l5.237,143.4Z" fill="none"/></clipPath><clipPath id="af"><path d="M94.957,151.84,0,98.474,146.774,0l94.957,53.366L94.957,151.84" fill="none"/></clipPath><filter id="ag" x="332.691" y="128.549" width="212.665" height="122.753" filterUnits="userSpaceOnUse"><feOffset dy="3" input="SourceAlpha"/><feGaussianBlur stdDeviation="3" result="ah"/><feFlood flood-opacity="0.561"/><feComposite operator="in" in2="ah"/><feComposite in="SourceGraphic"/></filter><filter id="ai" x="358.793" y="188.619" width="54.277" height="41.005" filterUnits="userSpaceOnUse"><feOffset dy="3" input="SourceAlpha"/><feGaussianBlur stdDeviation="3" result="aj"/><feFlood flood-opacity="0.459"/><feComposite operator="in" in2="aj"/><feComposite in="SourceGraphic"/></filter><linearGradient id="al" x1="0.5" y1="0.357" x2="0.5" y2="1" gradientUnits="objectBoundingBox"><stop offset="0" stop-color="#fff" stop-opacity="0"/><stop offset="1" stop-color="#242424" stop-opacity="0.396"/></linearGradient><linearGradient id="am" y1="0.336" xlink:href="#al"/><linearGradient id="an" x1="0.457" y1="0.311" xlink:href="#al"/></defs><g transform="translate(-542.238 -939.035)" clip-path="url(#a)"><path d="M530.223,434.892,651.567,364.9c7.156-4.6,8.194-7.382,8.166-8.618-.059-2.537-4.567-5.427-7.949-7.379l-57.827-33.159,5.946-3.429,54.84,31.443c5.6,3.234,10.793,6.969,10.921,12.384.11,4.533-3.391,8.928-11.01,13.823l-118.474,68.34ZM364.434,397.742,497.7,319.389l5.925,3.4L370.392,401.159ZM645.342,286.106l5.947-3.431,99.051,56.793-5.955,3.427Zm-362.1-16.07c-5.871-3.392-11.594-7.168-11.6-12.782-.006-4.512,3.753-8.8,11.833-13.5l45.118-25.963,5.96,3.418-48.108,27.682c-8.008,4.655-8.868,7.39-8.868,8.352,0,2.664,6.05,6.154,8.631,7.645l115.136,66.026-5.954,3.423Zm-149.858-23.2L0,170.348l5.948-3.43,130.389,74.77.009.006c9.047,5.225,24.426,5.154,33.592-.16l95.715-55.211,5.954,3.415-98.7,56.932c-5.619,3.257-12.829,4.889-20.005,4.892C145.862,251.56,138.844,249.988,133.386,246.837ZM613.71,208.146,702,157.219c7.159-4.6,8.2-7.379,8.169-8.618-.059-2.538-4.567-5.427-7.949-7.379l-56.646-32.479,5.948-3.433,53.656,30.767c5.6,3.234,10.793,6.969,10.921,12.384.11,4.533-3.388,8.928-11.01,13.823l-85.426,49.277ZM94.576,37.737l5.946-3.43,148.51,85.151-5.954,3.427Zm330.773,62.408,69.98-40.267c.193-.1.371-.19.561-.288l6.166,3.534c-1.223.588-2.49,1.222-3.863,1.949L431.31,103.56Zm-210.27-51.41c-5.871-3.392-11.595-7.169-11.6-12.782-.006-4.512,3.753-8.8,11.833-13.5L254.335,0l5.957,3.418L218.278,27.593c-8.008,4.654-8.868,7.39-8.868,8.355,0,2.661,6.05,6.15,8.631,7.642L299.6,90.36l-5.955,3.427Z" transform="translate(495.489 961.216)" fill="#242424" opacity="0.103"/><g transform="translate(581.94 964.066)"><ellipse cx="14.912" cy="5.326" rx="14.912" ry="5.326" transform="matrix(0.875, -0.485, 0.485, 0.875, 136.341, 205.123)" fill="url(#b)"/><ellipse cx="14.912" cy="5.326" rx="14.912" ry="5.326" transform="matrix(0.875, -0.485, 0.485, 0.875, 382.393, 68.782)" fill="url(#b)"/><ellipse cx="14.912" cy="5.326" rx="14.912" ry="5.326" transform="matrix(0.875, -0.485, 0.485, 0.875, 198.12, 237.078)" fill="url(#b)"/><ellipse cx="14.912" cy="5.326" rx="14.912" ry="5.326" transform="matrix(0.875, -0.485, 0.485, 0.875, 354.699, 346.79)" fill="url(#b)"/><ellipse cx="14.912" cy="5.326" rx="14.912" ry="5.326" transform="matrix(0.875, -0.485, 0.485, 0.875, 558.145, 184.885)" fill="url(#b)"/><ellipse cx="14.912" cy="5.326" rx="14.912" ry="5.326" transform="matrix(0.875, -0.485, 0.485, 0.875, 584.774, 168.908)" fill="url(#b)"/><ellipse cx="14.912" cy="5.326" rx="14.912" ry="5.326" transform="matrix(0.875, -0.485, 0.485, 0.875, 133.145, 14.459)" fill="url(#b)"/><ellipse cx="14.912" cy="5.326" rx="14.912" ry="5.326" transform="matrix(0.875, -0.485, 0.485, 0.875, 498.496, 397.918)" fill="url(#b)"/><ellipse cx="14.912" cy="5.326" rx="14.912" ry="5.326" transform="matrix(0.875, -0.485, 0.485, 0.875, 542.167, 372.354)" fill="url(#b)"/><ellipse cx="14.912" cy="5.326" rx="14.912" ry="5.326" transform="matrix(0.875, -0.485, 0.485, 0.875, 95.865, 228.557)" fill="url(#b)"/><ellipse cx="14.912" cy="5.326" rx="14.912" ry="5.326" transform="translate(5.164 210.902) rotate(29)" fill="url(#b)"/><ellipse cx="14.912" cy="5.326" rx="14.912" ry="5.326" transform="translate(39.249 43.672) rotate(29)" fill="url(#b)"/><ellipse cx="14.912" cy="5.326" rx="14.912" ry="5.326" transform="translate(85.051 70.301) rotate(29)" fill="url(#b)"/><ellipse cx="14.912" cy="5.326" rx="14.912" ry="5.326" transform="translate(146.831 46.867) rotate(29)" fill="url(#b)"/><ellipse cx="14.912" cy="5.326" rx="14.912" ry="5.326" transform="translate(208.61 265.226) rotate(29)" fill="url(#b)"/><ellipse cx="14.912" cy="5.326" rx="14.912" ry="5.326" transform="translate(532.419 317.419) rotate(29)" fill="url(#b)"/><ellipse cx="14.912" cy="5.326" rx="14.912" ry="5.326" transform="translate(601.655 298.246) rotate(29)" fill="url(#b)"/><ellipse cx="14.912" cy="5.326" rx="14.912" ry="5.326" transform="translate(567.57 101.191) rotate(29)" fill="url(#b)"/></g><path d="M4242.254,1201.372l18.329-16.794,144.331,84.64-16.526,10.4Z" transform="translate(-3757.101 -61.744)" fill="url(#t)"/><path d="M4242.254,1201.372l18.329-16.794,144.331,84.64-16.526,10.4Z" transform="translate(-3148.859 -151.402)" fill="url(#t)"/><path d="M4242.254,1201.372l18.329-16.794,144.331,84.64-16.526,10.4Z" transform="translate(-3682.727 -207.437)" fill="url(#t)"/><path d="M4242.254,1201.372l18.329-16.794,144.331,84.64-16.526,10.4Z" transform="translate(-3492.019 30.784)" fill="url(#w)"/><path d="M4404.755,1217.033l-30.083-22.57,86.075-50.428,24.949,15Z" transform="translate(-3532.502 161.635)" fill="url(#x)"/><path d="M4404.755,1217.033l-30.083-22.57,86.075-50.428,24.949,15Z" transform="translate(-3460.165 -145.033)" fill="url(#y)"/><path d="M4404.755,1217.033l-30.083-22.57,86.075-50.428,24.949,15Z" transform="translate(-3371.527 208.501)" fill="url(#x)"/><path d="M4242.254,1201.372l18.329-16.794,144.331,84.64-16.526,10.4Z" transform="translate(-3105.049 51.346)" fill="url(#w)"/><g transform="translate(686.946 997.69)"><g transform="matrix(1, 0, 0, 1, -144.71, -58.65)" filter="url(#ab)"><path d="M352.405,317.063,13.246,122.577C-7.662,109.2,2.054,92.254,3.577,90.1a.089.089,0,0,0,.035.076c1.408-2.429,4.5-5.14,9.886-8.267L144.8,6.359c16.015-8.453,22.3-8.453,38.178-.158l339,194.376c3.687,2.129,6.716,4.231,8.4,6.506,10.2,9.973,3.339,26.467-8.631,34.157L390.589,316.893c-5.358,3.1-12.369,4.66-19.348,4.66C364.4,321.552,357.591,320.058,352.405,317.063Z" transform="translate(144.71 58.65)" fill="#fff"/></g><path d="M352.4,317.063,13.246,122.578C-7.662,109.2,2.054,92.255,3.576,90.1a.09.09,0,0,0,.035.076c1.407-2.429,4.5-5.14,9.886-8.268L144.8,6.359c16.015-8.452,22.3-8.452,38.177-.158l339,194.377c3.688,2.13,6.719,4.233,8.4,6.509,10.2,9.973,3.336,26.465-8.634,34.154L390.589,316.893c-5.358,3.1-12.369,4.66-19.348,4.66C364.4,321.552,357.591,320.058,352.4,317.063Z" transform="translate(0 0)" fill="#242424"/><path d="M1171.136,520.1c10.478,6.051,27.575,5.977,38.184-.17l131.156-75.652c15.873-10.2,10.7-16.025.229-22.073l-339-194.377c-15.879-8.294-22.162-8.294-38.178.158l-131.3,75.553c-17.639,10.252-10.733,16.025-.251,22.076Z" transform="translate(-818.731 -221.622)" fill="none" fill-rule="evenodd"/><g transform="translate(14.229 5.505)" clip-path="url(#ad)"><g transform="matrix(0.999, 0.035, -0.035, 0.999, -4.289, -24.301)" opacity="0.05"><g transform="translate(0 0)"><g transform="translate(0 0)"><g clip-path="url(#ae)"><g transform="translate(2.788 13.689)"><g transform="translate(0 0)"><g transform="translate(0 0)"><g clip-path="url(#af)"><path d="M61.891,0,43.876,12.087c-9.716,14.9-17.786,28.159-23.234,37.22C13,62.235,8.058,71.219,6.738,73.759a11.85,11.85,0,0,1-.632,1.294C4.259,78.691.3,86.216.016,94.132c-.347,9.769,4.99,16.884,15.9,21.214,2.3-.136,4.608-.245,6.907-.437-4.907-2.787-8.456-6.33-10.476-10.365a21.949,21.949,0,0,1-2.167-11.709c.548-8.074,4.663-15.795,6.618-19.483,2.438-4.6,11.65-19.287,21.422-34.873C47.783,23.25,57.551,7.611,61.891,0" transform="translate(61.135 15.932)" fill="#fff"/><path d="M48.159,0,0,32.311,29.1,48.668a24.562,24.562,0,0,1-.74-7.674,35.5,35.5,0,0,1,2.184-10.041,52.107,52.107,0,0,1,3.57-7.816c1.83-3.4,7.358-12.378,14.046-23.137" transform="translate(0.001 66.162)" fill="#fff"/><path d="M56.921,0l-.052.066c-.187.821-.4,1.612-.646,2.41a37.961,37.961,0,0,1-4.681,9.329C39.111,30.447,28.228,48.334,21.269,60.02,13.109,73.725,7.15,84.475,5.049,88.649A22.487,22.487,0,0,1,3.83,90.967,45.667,45.667,0,0,0,.955,96.952a13.523,13.523,0,0,0-.844,6.624,12.7,12.7,0,0,0,3.782,6.906,36.41,36.41,0,0,0,11.029,6.856,179.059,179.059,0,0,0,32.464-12A156.5,156.5,0,0,0,65.769,94.873l.41-.275A116.486,116.486,0,0,0,85.34,78.642c16.574-17.291,22.331-35.85,18.4-52.33L60.348,1.927,56.921,0" transform="translate(103.046 7.414)" fill="#fff"/></g></g></g></g></g></g></g></g></g><g transform="matrix(1, 0, 0, 1, -144.71, -58.65)" filter="url(#ag)"><path d="M0,72.9c0-10.131,8.736-19.156,22.352-24.99l87.43-43.6L119.28,0l12.475,7.236,62.91,36.487-4.792,2.625-86.862,47.6q-2.242,1.378-4.764,2.611l-.883.484L97.307,97c-10.314,4.828-23.761,7.749-38.466,7.749C26.344,104.753,0,90.492,0,72.9Z" transform="translate(341.69 134.55)" fill="#272727"/></g><path d="M4698.2,1153.2s12.129-6.857,15.541.933c.049,3.336,1.816-2.775,1.8-6.989a2.946,2.946,0,0,0-1.606-2.682l-19.208.873Z" transform="translate(-4322.349 -1024.901)" fill="#242424"/><g transform="matrix(1, 0, 0, 1, -144.71, -58.65)" filter="url(#ai)"><ellipse cx="18.139" cy="11.503" rx="18.139" ry="11.503" transform="translate(367.79 194.62)" fill="#191919"/></g><path d="M18.139,15.859A24.226,24.226,0,0,1,5.313,12.49,12.876,12.876,0,0,1,1.426,8.834,7.982,7.982,0,0,1,0,4.356,7.952,7.952,0,0,1,1.346,0,7.574,7.574,0,0,0,.885,2.587,7.983,7.983,0,0,0,2.311,7.064,12.878,12.878,0,0,0,6.2,10.721,24.223,24.223,0,0,0,19.024,14.09a25.912,25.912,0,0,0,10.227-2,14.523,14.523,0,0,0,6.567-5.147c-.9,2.5-3.142,4.759-6.3,6.375a22.5,22.5,0,0,1-5.24,1.868A27.651,27.651,0,0,1,18.139,15.859Z" transform="translate(223.085 143.995)" fill="#101010"/><ellipse cx="18.139" cy="11.503" rx="18.139" ry="11.503" transform="translate(223.085 135.964)" fill="#242424"/></g><path d="M4406.123,1220.352l-31.451-23.6,89.99-52.721,26.083,15.686Z" transform="translate(-3697.761 -205)" fill="url(#y)"/><path d="M4559.81,860.108l-2.873,167.6-41.843,61.372s-23.805,34.964,4,46.03c-14.294,2.463-21.7-7.086-23.009-16.671s-6.339-152.863-1.593-166.2,48.777-81.042,48.777-81.042Z" transform="translate(-3739.081 -8.339)" fill="url(#al)"/><path d="M4534.378,951.159v164.28s7.661,16.058,14.818,16.053,38.561-11.776,53.532-23.83,41.912-27.1,38.6-64.712-1.992-160.895-1.992-160.895L4594.5,853.742Z" transform="translate(-3736.351 -8.753)" fill="url(#am)"/><path d="M4487.266,904.711l-48.736,31.144s3.2,157.741,6.012,162.73,21.377,14.635,21.743,14.979c-2.5-19.937,19.583-44.037,21.314-46.934C4487.237,1049.345,4487.266,904.711,4487.266,904.711Z" transform="translate(-3742.597 -5.432)" fill="url(#an)"/></g></svg>